<svg width="320" height="185" viewBox="0 0 320 185" fill="none" xmlns="http://www.w3.org/2000/svg">
<path d="M0 16C0 7.16344 7.16344 0 16 0H304C312.837 0 320 7.16344 320 16V185H0V16Z" fill="#FF753A"/>
<mask id="mask0" mask-type="alpha" maskUnits="userSpaceOnUse" x="0" y="0" width="319" height="185">
<path d="M0 16C0 7.16344 7.16344 0 16 0H303C311.837 0 319 7.16344 319 16V185H0V16Z" fill="white"/>
</mask>
<g mask="url(#mask0)">
<g opacity="0.1">
<mask id="mask1" mask-type="alpha" maskUnits="userSpaceOnUse" x="124" y="-2" width="61" height="226">
<path fill-rule="evenodd" clip-rule="evenodd" d="M124.021 223.423H184.788V-1.7832H124.021L124.021 223.423Z" fill="white"/>
</mask>
<g mask="url(#mask1)">
<path fill-rule="evenodd" clip-rule="evenodd" d="M184.788 -247.856L158.11 226.748H156.339L124.021 -247.856H184.788Z" fill="white"/>
</g>
<mask id="mask2" mask-type="alpha" maskUnits="userSpaceOnUse" x="159" y="-2" width="141" height="226">
<path fill-rule="evenodd" clip-rule="evenodd" d="M159.368 223.423H299.51V-1.7832L159.368 -1.7832V223.423H159.368Z" fill="white"/>
</mask>
<g mask="url(#mask2)">
<path fill-rule="evenodd" clip-rule="evenodd" d="M299.51 -247.856L161.124 226.748H159.368L239.215 -247.856H299.51Z" fill="white"/>
</g>
<mask id="mask3" mask-type="alpha" maskUnits="userSpaceOnUse" x="162" y="-2" width="169" height="226">
<path fill-rule="evenodd" clip-rule="evenodd" d="M162.459 223.423H330.612V-1.7832L162.459 -1.7832V223.423H162.459Z" fill="white"/>
</mask>
<g mask="url(#mask3)">
<path fill-rule="evenodd" clip-rule="evenodd" d="M357.398 -129.034L164.248 226.748H162.459L357.398 -240.463V-129.034Z" fill="white"/>
</g>
<mask id="mask4" mask-type="alpha" maskUnits="userSpaceOnUse" x="166" y="-2" width="165" height="226">
<path fill-rule="evenodd" clip-rule="evenodd" d="M166.567 223.423H330.613V-1.7832H166.567L166.567 223.423Z" fill="white"/>
</mask>
<g mask="url(#mask4)">
<path fill-rule="evenodd" clip-rule="evenodd" d="M169.097 226.747H166.567L357.31 -60.0576V3.39686L169.097 226.747Z" fill="white"/>
</g>
<mask id="mask5" mask-type="alpha" maskUnits="userSpaceOnUse" x="171" y="44" width="160" height="180">
<path fill-rule="evenodd" clip-rule="evenodd" d="M171.124 223.421H330.612V44.0244H171.124V223.421H171.124Z" fill="white"/>
</mask>
<g mask="url(#mask5)">
<path fill-rule="evenodd" clip-rule="evenodd" d="M173.661 226.759H171.124L357.392 44.0244V73.2417L173.661 226.759Z" fill="white"/>
</g>
<mask id="mask6" mask-type="alpha" maskUnits="userSpaceOnUse" x="176" y="95" width="155" height="129">
<path fill-rule="evenodd" clip-rule="evenodd" d="M176.367 223.424H330.612V95.5459L176.367 95.5459V223.424Z" fill="white"/>
</mask>
<g mask="url(#mask6)">
<path fill-rule="evenodd" clip-rule="evenodd" d="M182.026 226.745H176.367L357.363 95.5459V128.099L182.026 226.745Z" fill="white"/>
</g>
<mask id="mask7" mask-type="alpha" maskUnits="userSpaceOnUse" x="192" y="159" width="139" height="65">
<path fill-rule="evenodd" clip-rule="evenodd" d="M192.548 223.426H330.615V159.535H192.548L192.548 223.426H192.548Z" fill="white"/>
</mask>
<g mask="url(#mask7)">
<path fill-rule="evenodd" clip-rule="evenodd" d="M205.719 226.737H192.548L357.204 159.535V181.905L205.719 226.737Z" fill="white"/>
</g>
<mask id="mask8" mask-type="alpha" maskUnits="userSpaceOnUse" x="10" y="-2" width="145" height="226">
<path fill-rule="evenodd" clip-rule="evenodd" d="M10.6729 223.423H154.492V-1.7832H10.6729L10.6729 223.423Z" fill="white"/>
</mask>
<g mask="url(#mask8)">
<path fill-rule="evenodd" clip-rule="evenodd" d="M10.6729 -247.856L152.737 226.748H154.492L70.9159 -247.856H10.6729Z" fill="white"/>
</g>
<mask id="mask9" mask-type="alpha" maskUnits="userSpaceOnUse" x="-12" y="-2" width="164" height="226">
<path fill-rule="evenodd" clip-rule="evenodd" d="M151.404 223.423H-11.5654V-1.7832H151.404V223.423Z" fill="white"/>
</mask>
<g mask="url(#mask9)">
<path fill-rule="evenodd" clip-rule="evenodd" d="M-46.3105 -129.034L149.623 226.748H151.403L-46.3105 -240.463V-129.034Z" fill="white"/>
</g>
<mask id="mask10" mask-type="alpha" maskUnits="userSpaceOnUse" x="-12" y="-2" width="160" height="226">
<path fill-rule="evenodd" clip-rule="evenodd" d="M147.98 223.423H-11.5645V-1.7832H147.98V223.423Z" fill="white"/>
</mask>
<g mask="url(#mask10)">
<path fill-rule="evenodd" clip-rule="evenodd" d="M145.454 226.747H147.98L-46.335 -60.0576V3.39686L145.454 226.747Z" fill="white"/>
</g>
<mask id="mask11" mask-type="alpha" maskUnits="userSpaceOnUse" x="-12" y="44" width="155" height="180">
<path fill-rule="evenodd" clip-rule="evenodd" d="M142.736 223.421H-11.5654V44.0244L142.736 44.0244V223.421Z" fill="white"/>
</mask>
<g mask="url(#mask11)">
<path fill-rule="evenodd" clip-rule="evenodd" d="M140.213 226.759H142.736L-46.292 44.0244V73.2417L140.213 226.759Z" fill="white"/>
</g>
<mask id="mask12" mask-type="alpha" maskUnits="userSpaceOnUse" x="-12" y="95" width="151" height="129">
<path fill-rule="evenodd" clip-rule="evenodd" d="M138.491 223.424H-11.5635V95.5459H138.491V223.424Z" fill="white"/>
</mask>
<g mask="url(#mask12)">
<path fill-rule="evenodd" clip-rule="evenodd" d="M132.826 226.745H138.49L-46.4756 95.5459V128.099L132.826 226.745Z" fill="white"/>
</g>
<mask id="mask13" mask-type="alpha" maskUnits="userSpaceOnUse" x="-12" y="159" width="135" height="65">
<path fill-rule="evenodd" clip-rule="evenodd" d="M122.998 223.426H-11.5635V159.535H122.998V223.426Z" fill="white"/>
</mask>
<g mask="url(#mask13)">
<path fill-rule="evenodd" clip-rule="evenodd" d="M109.749 226.737H122.998L-46.4385 159.535V181.905L109.749 226.737Z" fill="white"/>
</g>
</g>
<path fill-rule="evenodd" clip-rule="evenodd" d="M192 57.7382L192.75 60L198 58.8687L196.179 55L192 57.7382Z" fill="#0FEAFC"/>
<path fill-rule="evenodd" clip-rule="evenodd" d="M232.981 117.85C232.445 118.987 232.936 120.342 234.077 120.876C235.217 121.41 236.576 120.922 237.113 119.784C237.648 118.647 237.157 117.292 236.017 116.758C234.876 116.225 233.517 116.712 232.981 117.85Z" fill="#FFFF00"/>
<path fill-rule="evenodd" clip-rule="evenodd" d="M277.152 146.918C276.616 148.055 277.108 149.41 278.248 149.945C279.389 150.478 280.748 149.99 281.284 148.853C281.82 147.715 281.329 146.36 280.188 145.825C279.048 145.292 277.688 145.781 277.152 146.918Z" fill="#FFFF00"/>
<path fill-rule="evenodd" clip-rule="evenodd" d="M251.031 79.5234C250.495 80.6601 250.987 82.0157 252.128 82.5501C253.268 83.0838 254.628 82.5948 255.163 81.4582C255.699 80.3208 255.208 78.9652 254.068 78.4308C252.926 77.8971 251.567 78.3867 251.031 79.5234Z" fill="#FFFF00"/>
<path fill-rule="evenodd" clip-rule="evenodd" d="M238.014 100.059C237.664 100.801 237.984 101.684 238.729 102.032C239.472 102.38 240.358 102.061 240.706 101.32C241.056 100.578 240.736 99.6942 239.993 99.3473C239.248 98.9989 238.362 99.3172 238.014 100.059Z" fill="white"/>
<path fill-rule="evenodd" clip-rule="evenodd" d="M269.277 98.1052C268.928 98.8474 269.249 99.7308 269.992 100.078C270.736 100.427 271.622 100.108 271.971 99.3664C272.321 98.6249 272.001 97.7415 271.256 97.3938C270.513 97.0462 269.626 97.3638 269.277 98.1052Z" fill="white"/>
<path fill-rule="evenodd" clip-rule="evenodd" d="M282.617 120.938C282.268 121.68 282.588 122.562 283.332 122.911C284.075 123.258 284.961 122.94 285.31 122.199C285.659 121.457 285.339 120.574 284.596 120.226C283.852 119.878 282.966 120.196 282.617 120.938Z" fill="white"/>
<path fill-rule="evenodd" clip-rule="evenodd" d="M224.79 104.06C224.441 104.803 224.76 105.685 225.505 106.034C226.248 106.382 227.134 106.062 227.483 105.321C227.832 104.58 227.512 103.697 226.769 103.349C226.025 103.001 225.139 103.32 224.79 104.06Z" fill="#00D0FF"/>
<path fill-rule="evenodd" clip-rule="evenodd" d="M225.261 81.8746C224.913 82.6161 225.232 83.4988 225.976 83.8472C226.719 84.1948 227.605 83.8766 227.954 83.1351C228.304 82.3937 227.984 81.5102 227.241 81.1626C226.497 80.8142 225.611 81.1332 225.261 81.8746Z" fill="#00D0FF"/>
<path fill-rule="evenodd" clip-rule="evenodd" d="M251.148 133.107C250.799 133.848 251.12 134.732 251.863 135.079C252.607 135.428 253.493 135.109 253.842 134.368C254.191 133.626 253.872 132.743 253.127 132.395C252.384 132.047 251.497 132.365 251.148 133.107Z" fill="#A100CE"/>
<path fill-rule="evenodd" clip-rule="evenodd" d="M236.214 164.815C235.864 165.557 236.185 166.44 236.928 166.788C237.672 167.136 238.558 166.817 238.908 166.076C239.257 165.335 238.937 164.451 238.193 164.103C237.45 163.755 236.562 164.073 236.214 164.815Z" fill="#FFFF00"/>
<path fill-rule="evenodd" clip-rule="evenodd" d="M281.74 159.61C281.39 160.352 281.712 161.236 282.455 161.583C283.199 161.932 284.085 161.613 284.434 160.871C284.784 160.13 284.464 159.247 283.719 158.899C282.976 158.551 282.089 158.869 281.74 159.61Z" fill="#A100CE"/>
<path fill-rule="evenodd" clip-rule="evenodd" d="M277.648 97.5C277.299 98.2408 277.62 99.1249 278.363 99.4726C279.107 99.8209 279.993 99.5019 280.342 98.7619C280.691 98.019 280.372 97.1356 279.627 96.7872C278.885 96.4396 277.997 96.7579 277.648 97.5Z" fill="#A100CE"/>
<path fill-rule="evenodd" clip-rule="evenodd" d="M265.558 88.8356C265.208 89.5777 265.528 90.4605 266.272 90.8081C267.016 91.1565 267.901 90.8375 268.25 90.0967C268.6 89.3553 268.28 88.4718 267.537 88.1235C266.792 87.7752 265.906 88.0941 265.558 88.8356Z" fill="#A100CE"/>
<path fill-rule="evenodd" clip-rule="evenodd" d="M249.596 51.3942C249.246 52.1356 249.566 53.0191 250.311 53.3674C251.054 53.715 251.94 53.3961 252.288 52.6546C252.638 51.9132 252.318 51.0297 251.575 50.6821C250.83 50.3338 249.944 50.6527 249.596 51.3942Z" fill="#A100CE"/>
<path fill-rule="evenodd" clip-rule="evenodd" d="M255.546 113.86C255.888 116.567 258.534 118.476 261.053 119.029C262.134 119.266 263.422 119.12 264.252 118.334C265.131 117.503 265.607 115.808 264.935 114.719C263.22 111.939 259.632 115.816 259.547 117.854C259.4 121.404 264.474 122.867 267.254 122.309C268.182 122.123 268.062 120.645 267.122 120.834C265.172 121.225 262.583 120.637 261.351 118.982C260.633 118.015 261.199 116.88 261.899 116.118C262.398 115.575 263.834 114.715 263.734 116.082C263.594 118.001 261.579 117.775 260.258 117.242C258.799 116.654 257.234 115.369 257.026 113.727C256.907 112.782 255.425 112.909 255.546 113.86Z" fill="#FFFF00"/>
<path fill-rule="evenodd" clip-rule="evenodd" d="M264.932 69.7813C265.275 72.4883 267.921 74.3972 270.44 74.9505C271.521 75.1876 272.808 75.0421 273.638 74.2552C274.517 73.4249 274.992 71.7308 274.321 70.641C272.606 67.8613 269.018 71.7385 268.933 73.7768C268.786 77.3252 273.861 78.7886 276.641 78.2304C277.57 78.0443 277.449 76.567 276.508 76.7552C274.558 77.1469 271.969 76.5586 270.738 74.9036C270.019 73.9377 270.585 72.8017 271.286 72.0393C271.785 71.4965 273.22 70.6368 273.12 72.0036C272.981 73.9237 270.965 73.6963 269.645 73.1633C268.185 72.5751 266.621 71.2908 266.413 69.6484C266.293 68.7041 264.812 68.8307 264.932 69.7813Z" fill="#00D0FF"/>
<path fill-rule="evenodd" clip-rule="evenodd" d="M245.212 136.252C241.998 134.6 237.977 137.781 238.657 141.29C239.077 143.459 241.314 144.386 243.289 144.627C244.949 144.83 247.188 143.757 245.977 141.814C243.789 138.303 236.55 140.347 236.474 144.453C236.415 147.584 240.221 150.218 243.124 150.108C244.408 150.06 246.077 148.841 245.51 147.403C244.944 145.969 242.661 145.937 241.407 146.014C239.738 146.117 237.932 146.719 237.012 148.192C235.722 150.261 238.016 152.705 239.388 153.99C240.055 154.615 240.971 153.539 240.309 152.919C239.184 151.865 236.968 149.638 238.834 148.247C240.037 147.351 241.922 147.239 243.342 147.531C244.843 147.838 243.846 148.671 242.832 148.71C241.244 148.769 239.541 147.536 238.614 146.353C237.417 144.83 237.874 143.352 239.444 142.354C240.67 141.574 242.263 141.101 243.66 141.644C244.123 141.825 244.591 142.175 244.815 142.628C245.159 143.336 243.889 143.258 243.528 143.235C241.408 143.109 239.326 141.702 240.24 139.412C240.93 137.68 242.886 136.643 244.61 137.529C245.422 137.947 246.021 136.669 245.212 136.252Z" fill="white"/>
<path fill-rule="evenodd" clip-rule="evenodd" d="M297.22 110.956C298.112 109.268 296.441 107.13 294.573 107.473C293.42 107.685 292.919 108.862 292.78 109.903C292.665 110.779 293.225 111.966 294.262 111.335C296.137 110.196 295.085 106.365 292.903 106.307C291.241 106.262 289.825 108.26 289.87 109.792C289.89 110.471 290.53 111.356 291.296 111.063C292.061 110.771 292.088 109.566 292.053 108.903C292.006 108.023 291.694 107.066 290.915 106.574C289.822 105.884 288.513 107.084 287.823 107.802C287.489 108.151 288.057 108.639 288.39 108.293C288.954 107.704 290.146 106.544 290.878 107.535C291.348 108.174 291.399 109.169 291.239 109.919C291.067 110.709 290.629 110.179 290.614 109.644C290.589 108.806 291.252 107.911 291.885 107.427C292.698 106.803 293.483 107.05 294.005 107.884C294.414 108.535 294.659 109.378 294.363 110.113C294.266 110.358 294.078 110.602 293.836 110.717C293.457 110.897 293.505 110.227 293.519 110.037C293.595 108.918 294.351 107.825 295.564 108.317C296.48 108.69 297.023 109.726 296.544 110.633C296.319 111.06 296.996 111.381 297.22 110.956Z" fill="white"/>
<path fill-rule="evenodd" clip-rule="evenodd" d="M296.203 99.8603C294.225 99.0748 283.088 94.1973 283.088 94.1973L287.301 100.309L296.203 99.8603Z" fill="#FFFF00"/>
<path fill-rule="evenodd" clip-rule="evenodd" d="M74.4872 117.85C75.0233 118.987 74.5314 120.342 73.3913 120.876C72.2504 121.41 70.8913 120.922 70.3553 119.784C69.82 118.647 70.3111 117.292 71.4512 116.758C72.5921 116.225 73.9512 116.712 74.4872 117.85Z" fill="#FFFF00"/>
<path fill-rule="evenodd" clip-rule="evenodd" d="M30.3144 146.918C30.8504 148.055 30.3586 149.41 29.2184 149.945C28.0776 150.478 26.7185 149.99 26.1824 148.853C25.6471 147.715 26.1382 146.36 27.2784 145.825C28.4192 145.292 29.779 145.781 30.3144 146.918Z" fill="#FFFF00"/>
<path fill-rule="evenodd" clip-rule="evenodd" d="M56.4356 79.5234C56.9716 80.6601 56.4798 82.0157 55.3389 82.5501C54.1988 83.0838 52.839 82.5948 52.3037 81.4582C51.7683 80.3208 52.2588 78.9652 53.3989 78.4308C54.5405 77.8971 55.8995 78.3867 56.4356 79.5234Z" fill="#FFFF00"/>
<path fill-rule="evenodd" clip-rule="evenodd" d="M69.4535 100.059C69.8029 100.801 69.483 101.684 68.7386 102.032C67.9955 102.38 67.1094 102.061 66.7607 101.32C66.4113 100.578 66.7312 99.6942 67.4742 99.3473C68.2187 98.9989 69.1048 99.3172 69.4535 100.059Z" fill="white"/>
<path fill-rule="evenodd" clip-rule="evenodd" d="M38.1893 98.1052C38.5387 98.8474 38.2173 99.7308 37.4743 100.078C36.7306 100.427 35.8444 100.108 35.495 99.3664C35.1456 98.6249 35.4655 97.7415 36.21 97.3938C36.953 97.0462 37.8406 97.3638 38.1893 98.1052Z" fill="white"/>
<path fill-rule="evenodd" clip-rule="evenodd" d="M24.85 120.938C25.1994 121.68 24.8795 122.562 24.1351 122.911C23.392 123.258 22.5066 122.94 22.1572 122.199C21.8077 121.457 22.1277 120.574 22.8707 120.226C23.6151 119.878 24.5013 120.196 24.85 120.938Z" fill="white"/>
<path fill-rule="evenodd" clip-rule="evenodd" d="M82.6774 104.06C83.0268 104.803 82.7069 105.685 81.9625 106.034C81.2194 106.382 80.3333 106.062 79.9839 105.321C79.6352 104.58 79.9551 103.697 80.6981 103.349C81.4426 103.001 82.3287 103.32 82.6774 104.06Z" fill="#00D0FF"/>
<path fill-rule="evenodd" clip-rule="evenodd" d="M82.2065 81.8746C82.5552 82.6161 82.2359 83.4988 81.4915 83.8472C80.7485 84.1948 79.8623 83.8766 79.5136 83.1351C79.1642 82.3937 79.4841 81.5102 80.2272 81.1626C80.9709 80.8142 81.857 81.1332 82.2065 81.8746Z" fill="#00D0FF"/>
<path fill-rule="evenodd" clip-rule="evenodd" d="M56.3188 133.107C56.6683 133.848 56.3469 134.732 55.6039 135.079C54.8602 135.428 53.974 135.109 53.6246 134.368C53.2759 133.626 53.5951 132.743 54.3402 132.395C55.0826 132.047 55.9701 132.365 56.3188 133.107Z" fill="#A100CE"/>
<path fill-rule="evenodd" clip-rule="evenodd" d="M71.2537 164.815C71.6031 165.557 71.2818 166.44 70.5388 166.788C69.795 167.136 68.9089 166.817 68.5595 166.076C68.2101 165.335 68.53 164.451 69.2744 164.103C70.0175 163.755 70.905 164.073 71.2537 164.815Z" fill="#FFFF00"/>
<path fill-rule="evenodd" clip-rule="evenodd" d="M25.7264 159.61C26.0758 160.352 25.7545 161.236 25.0114 161.583C24.2677 161.932 23.3815 161.613 23.0321 160.871C22.6827 160.13 23.0027 159.247 23.7471 158.899C24.4901 158.551 25.3777 158.869 25.7264 159.61Z" fill="#A100CE"/>
<path fill-rule="evenodd" clip-rule="evenodd" d="M29.8192 97.5C30.1679 98.2408 29.8472 99.1249 29.1035 99.4726C28.3598 99.8209 27.4736 99.5019 27.1249 98.7619C26.7755 98.019 27.0954 97.1356 27.8399 96.7872C28.5822 96.4396 29.4697 96.7579 29.8192 97.5Z" fill="#A100CE"/>
<path fill-rule="evenodd" clip-rule="evenodd" d="M41.9096 88.8356C42.259 89.5777 41.9391 90.4605 41.1946 90.8081C40.4516 91.1565 39.5661 90.8375 39.2167 90.0967C38.8673 89.3553 39.1873 88.4718 39.9303 88.1235C40.6747 87.7752 41.5609 88.0941 41.9096 88.8356Z" fill="#A100CE"/>
<path fill-rule="evenodd" clip-rule="evenodd" d="M57.8715 51.3942C58.2209 52.1356 57.901 53.0191 57.1565 53.3674C56.4135 53.715 55.5273 53.3961 55.1786 52.6546C54.8292 51.9132 55.1492 51.0297 55.8922 50.6821C56.6366 50.3338 57.5228 50.6527 57.8715 51.3942Z" fill="#A100CE"/>
<path fill-rule="evenodd" clip-rule="evenodd" d="M51.9211 113.86C51.5787 116.567 48.9329 118.476 46.414 119.029C45.3328 119.266 44.0453 119.12 43.2153 118.334C42.3362 117.503 41.8604 115.808 42.5319 114.719C44.2467 111.939 47.8348 115.816 47.9204 117.854C48.0671 121.404 42.9929 122.867 40.213 122.309C39.2848 122.123 39.4047 120.645 40.3456 120.834C42.2955 121.225 44.8845 120.637 46.1158 118.982C46.8343 118.015 46.2681 116.88 45.5679 116.118C45.069 115.575 43.6328 114.715 43.7331 116.082C43.8727 118.001 45.8885 117.775 47.209 117.242C48.6684 116.654 50.233 115.369 50.4407 113.727C50.5607 112.782 52.0418 112.909 51.9211 113.86Z" fill="#FFFF00"/>
<path fill-rule="evenodd" clip-rule="evenodd" d="M42.5354 69.7813C42.1923 72.4883 39.5465 74.3972 37.0276 74.9505C35.9464 75.1876 34.6589 75.0421 33.8289 74.2552C32.9504 73.4249 32.4747 71.7308 33.1462 70.641C34.861 67.8613 38.4491 71.7385 38.534 73.7768C38.6806 77.3252 33.6064 78.7886 30.8266 78.2304C29.8976 78.0443 30.0183 76.567 30.9592 76.7552C32.909 77.1469 35.498 76.5586 36.7294 74.9036C37.4486 73.9377 36.8817 72.8017 36.1814 72.0393C35.6826 71.4965 34.247 70.6368 34.3467 72.0036C34.4863 73.9237 36.5021 73.6963 37.8225 73.1633C39.2819 72.5751 40.8466 71.2908 41.0543 69.6484C41.1742 68.7041 42.6554 68.8307 42.5354 69.7813Z" fill="#00D0FF"/>
<path fill-rule="evenodd" clip-rule="evenodd" d="M68.8094 141.29C68.3892 143.459 66.1524 144.386 64.178 144.627C62.5179 144.83 60.2783 143.757 61.4893 141.814C63.6777 138.303 70.9164 140.347 70.9922 144.453C71.0512 147.584 67.2455 150.218 64.3422 150.108C63.0589 150.06 61.3897 148.841 61.9566 147.403C62.5228 145.969 64.8059 145.937 66.0591 146.014C67.7289 146.117 69.5342 146.719 70.4541 148.192C71.7444 150.261 69.45 152.705 68.0783 153.99C67.4111 154.615 66.4955 153.539 67.1571 152.919C68.2825 151.865 70.499 149.638 68.6326 148.247C67.4293 147.351 65.5441 147.239 64.1247 147.531C62.6232 147.838 63.6209 148.671 64.6347 148.71C66.2225 148.769 67.9254 147.536 68.853 146.353C70.0492 144.83 69.5925 143.352 68.0229 142.354C66.7965 141.574 65.2031 141.101 63.8061 141.644C63.343 141.825 62.875 142.175 62.6519 142.628C62.3074 143.336 63.5774 143.258 63.9387 143.235C66.0584 143.109 68.1401 141.702 67.2266 139.412C66.5369 137.68 64.5807 136.643 62.8561 137.529C62.0443 137.947 61.4458 136.669 62.2548 136.252C65.4683 134.6 69.4893 137.781 68.8094 141.29Z" fill="white"/>
<path fill-rule="evenodd" clip-rule="evenodd" d="M10.247 110.956C9.35526 109.268 11.0258 107.13 12.8943 107.473C14.0478 107.685 14.5487 108.862 14.687 109.903C14.802 110.779 14.2428 111.966 13.2051 111.335C11.3303 110.196 12.3828 106.365 14.5642 106.307C16.2263 106.262 17.6422 108.26 17.5973 109.792C17.577 110.471 16.9378 111.356 16.1716 111.063C15.4068 110.771 15.3795 109.566 15.4145 108.903C15.4616 108.023 15.7738 107.066 16.5519 106.574C17.6457 105.884 18.9543 107.084 19.644 107.802C19.978 108.151 19.4103 108.639 19.0771 108.293C18.513 107.704 17.3209 106.544 16.5898 107.535C16.119 108.174 16.0685 109.169 16.2284 109.919C16.4003 110.709 16.8382 110.179 16.8536 109.644C16.8782 108.806 16.2151 107.911 15.5822 107.427C14.769 106.803 13.9846 107.05 13.4619 107.884C13.0536 108.535 12.8087 109.378 13.1048 110.113C13.2016 110.358 13.3896 110.602 13.6317 110.717C14.0099 110.897 13.9622 110.227 13.9481 110.037C13.8724 108.918 13.116 107.825 11.9029 108.317C10.9873 108.69 10.4442 109.726 10.9234 110.633C11.1479 111.06 10.4716 111.381 10.247 110.956Z" fill="white"/>
<path fill-rule="evenodd" clip-rule="evenodd" d="M11.2637 99.8603C13.2423 99.0748 24.3793 94.1973 24.3793 94.1973L20.166 100.309L11.2637 99.8603Z" fill="#FFFF00"/>
<path fill-rule="evenodd" clip-rule="evenodd" d="M298.596 125.144C304.534 124.729 308.472 128.529 306.211 135.128C303.95 141.729 297.678 141.873 295.024 136.637L295.84 135.369C295.84 135.369 300.807 143.945 304.816 135.499C308.892 126.91 298.251 126.423 298.251 126.423L298.596 125.144Z" fill="#0F80E0"/>
<path fill-rule="evenodd" clip-rule="evenodd" d="M307.914 123.001L310.314 123.644C310.314 123.644 309.892 129.473 305.196 130.816C300.499 132.159 298.251 126.424 298.251 126.424L298.595 125.144C298.595 125.144 301.761 131.672 305.772 129.182C309.116 127.106 307.914 123.001 307.914 123.001Z" fill="#0FEAFC"/>
<path fill-rule="evenodd" clip-rule="evenodd" d="M295.84 135.369C302.98 135.525 301.394 142.665 298.254 146.272C294.172 150.961 286.746 147.995 286.993 142.05L288.646 141.952C288.646 141.952 288.531 146.65 293.589 146.991C298.646 147.333 300.791 139.93 299.308 137.843C297.824 135.757 295.404 136.536 295.404 136.536L295.84 135.369Z" fill="#0FEAFC"/>
<path fill-rule="evenodd" clip-rule="evenodd" d="M228.175 73.8537L231.856 74.8589C231.856 74.8589 234.652 66.3825 224.839 64.8535C218.259 63.8273 215.106 72.4897 218.858 75.5185L220.583 76.3278C220.583 76.3278 218.052 72.1987 220.698 68.1788C223.344 64.1596 231.166 67.9466 228.175 73.8537Z" fill="#C5073A"/>
<path fill-rule="evenodd" clip-rule="evenodd" d="M220.583 76.3287C227.255 74.3723 225.02 61.9068 216.442 58.6374C208.045 55.4359 204.452 64.7705 204.452 64.7705L205.86 65.542C205.86 65.542 209.121 57.2336 215.957 60.6093C229.671 67.3831 218.858 75.5194 218.858 75.5194L220.583 76.3287Z" fill="#F72C53"/>
<mask id="mask14" mask-type="alpha" maskUnits="userSpaceOnUse" x="83" y="32" width="23" height="24">
<path fill-rule="evenodd" clip-rule="evenodd" d="M105.442 32H83.915L83.915 55.7548H105.442V32V32Z" fill="white"/>
</mask>
<g mask="url(#mask14)">
<path fill-rule="evenodd" clip-rule="evenodd" d="M103.565 32.5194C109.737 43.6468 99.4959 57.9267 90.1375 55.4771C80.7785 53.0282 83.6839 45.3018 87.8144 43.2299L89.9551 44.2847C89.9551 44.2847 81.0703 51.1026 90.8111 53.6165C100.551 56.1304 105.593 42.8578 101.371 31.999L103.565 32.5194Z" fill="#FE9400"/>
</g>
<mask id="mask15" mask-type="alpha" maskUnits="userSpaceOnUse" x="92" y="32" width="23" height="30">
<path fill-rule="evenodd" clip-rule="evenodd" d="M92.748 32H114.6V61.5993H92.748V32H92.748Z" fill="white"/>
</mask>
<g mask="url(#mask15)">
<path fill-rule="evenodd" clip-rule="evenodd" d="M112.178 53.5769L114.6 55.3753C114.6 55.3753 111.73 64.3986 101.141 60.7165C90.5519 57.0345 89.2841 36.4655 101.371 32L103.564 32.5197C103.564 32.5197 87.1813 42.8797 97.4321 55.5117C105.943 65.9997 112.178 53.5769 112.178 53.5769Z" fill="#FFC534"/>
</g>
<path fill-rule="evenodd" clip-rule="evenodd" d="M90.1608 44.0091C91.2413 51.5048 84.3702 54.5587 79.4399 48.3907C74.5088 42.2233 80.9196 37.1003 85.2908 38.3531L85.7019 40.3949C85.7019 40.3949 76.7716 41.1126 80.9582 46.9092C85.1455 52.7051 87.717 47.5835 87.8138 43.2306L90.1608 44.0091Z" fill="#FFC534"/>
<path fill-rule="evenodd" clip-rule="evenodd" d="M43.9838 140.812C42.008 142.79 38.9538 144.258 36.1206 144.323C34.7167 144.354 33.3639 144.041 32.2259 143.273C31.814 142.996 31.4295 142.658 31.0801 142.257C29.7604 140.735 28.9044 139.11 28.5255 137.541C28.3802 136.949 28.3059 136.364 28.2982 135.794V135.765C28.2932 135.239 28.348 134.73 28.4602 134.24C28.7269 133.08 29.3239 132.037 30.2585 131.198C31.1482 130.398 32.3339 130.006 33.5316 130.006H36.2462L37.4559 131.195C37.4559 131.195 36.8349 131.063 35.9263 131.042C34.6114 131.01 32.7023 131.209 31.2303 132.376C30.4746 132.976 30.0052 133.722 29.7828 134.536C29.6235 135.108 29.5856 135.712 29.653 136.324C30.0101 139.558 33.3162 142.959 37.3338 142.444C37.8277 142.382 38.3322 142.259 38.8409 142.071C40.7851 141.354 42.0628 140.28 42.8935 139.126C44.8798 136.377 44.3557 133.161 44.3557 133.161L45.9077 135.26C46.5546 137.115 45.653 139.145 43.9838 140.812Z" fill="#C5073A"/>
<path fill-rule="evenodd" clip-rule="evenodd" d="M50.5055 142.724C44.2785 143.611 43.8337 149.232 48.7262 152.851C53.6187 156.471 57.7709 150.436 57.7709 150.436L56.8813 149.376C56.8813 149.376 53.0019 154.518 49.8263 152.316C46.6501 150.114 45.178 144.33 51.7713 144.709L50.5055 142.724Z" fill="#C5073A"/>
<path fill-rule="evenodd" clip-rule="evenodd" d="M37.4563 131.195C37.4563 131.195 35.6524 138.141 29.6535 136.324C29.2241 136.195 28.7729 136.019 28.2986 135.794C28.2937 135.789 28.2888 135.786 28.2832 135.786C27.839 135.573 27.3753 135.314 26.8911 135.006C26.3397 134.657 25.758 134.242 25.1518 133.757C23.5998 132.514 22.6196 131.25 22.085 130.006H24.7827C24.8024 130.058 24.8227 130.112 24.8445 130.165C25.7734 132.468 27.0708 133.715 28.4607 134.24C28.6873 134.329 28.9196 134.397 29.1518 134.444C29.3616 134.488 29.5735 134.518 29.7833 134.536C32.3961 134.739 35.0259 132.867 35.9268 131.042C36.1015 130.689 36.2137 130.339 36.246 130.006L37.4563 131.195Z" fill="#F72C53"/>
<path fill-rule="evenodd" clip-rule="evenodd" d="M44.3568 133.16C36.1231 136.516 35.6011 141.518 39.94 147.295C44.2782 153.071 52.7399 150.095 51.7709 144.709L50.5052 142.723C50.5052 142.723 50.7073 148.419 46.3361 148.821C41.9649 149.222 38.0035 144.201 38.7921 140.087C39.5801 135.973 44.5483 135.259 44.5483 135.259L44.3568 133.16Z" fill="#F72C53"/>
<path fill-rule="evenodd" clip-rule="evenodd" d="M25.833 36.0932L29.6288 38.8456L30.6644 33.3407L28.2487 32.8818L25.833 36.0932Z" fill="#FFC534"/>
<path fill-rule="evenodd" clip-rule="evenodd" d="M279.945 54.4828L280.866 55.744L285.007 52.8775L283.856 51.2715L279.945 54.4828Z" fill="#0FEAFC"/>
</g>
</svg>
