<svg width="138" height="30" viewBox="0 0 138 30" fill="none" xmlns="http://www.w3.org/2000/svg">
<path d="M48.65 14.875C51.575 14.275 52.625 13 52.625 11.1C52.625 8.525 50.35 7.1 46.325 7.1H38.4V7.725C40.1 7.85 40.6 8.275 40.6 9.75V21.425C40.6 22.825 40.225 23.175 38.4 23.375V24H46.625C51.075 24 53.475 21.975 53.475 19.3C53.475 16.925 51.4 15.25 48.65 14.9V14.875ZM44.6 9.2C44.6 8.225 45.025 7.85 46.025 7.85C47.725 7.85 48.5 9.075 48.5 11.275C48.5 13.725 47.725 14.675 44.6 14.675V9.2ZM44.6 15.425H45.25C47.9 15.425 49.175 16.75 49.175 19.3C49.175 21.825 48.125 23.2 46.175 23.2C45.075 23.2 44.6 22.75 44.6 21.55V15.425ZM66.6998 22.4L66.4498 22.65C66.3748 22.725 66.2998 22.75 66.1748 22.75C65.8248 22.75 65.6498 22.475 65.6498 22.05V15.525C65.6498 13.375 63.7998 12.175 60.7498 12.175C57.9248 12.175 55.9748 13.325 55.9748 15.325C55.9748 16.375 56.5748 17.025 57.5998 17.025C58.5998 17.025 59.2998 16.375 59.2998 15.525C59.2998 15.175 59.1498 14.875 58.8248 14.475C58.5998 14.225 58.5498 14.05 58.5498 13.9C58.5498 13.3 59.2748 12.975 60.1748 12.975C61.6498 12.975 62.1998 13.7 62.1998 15.3V17C59.2998 17.825 58.1248 18.275 57.1748 18.9C56.0498 19.65 55.4998 20.6 55.4998 21.7C55.4998 23.55 56.6498 24.35 58.2498 24.35C59.6998 24.35 60.8498 23.875 62.2248 22.625C62.4998 23.9 63.0498 24.35 64.2748 24.35C65.3498 24.35 66.1248 23.95 67.0748 22.925L66.6998 22.4ZM62.1998 21.575C61.6498 22.35 61.0498 22.575 60.4498 22.575C59.6998 22.575 59.1498 22 59.1498 20.9C59.1498 19.45 60.1998 18.425 62.1998 17.875V21.575ZM81.0498 24V23.4C80.0748 23.325 79.8248 23.025 79.8248 21.9V15.725C79.8248 13.55 78.4998 12.175 76.4498 12.175C74.9498 12.175 73.7498 12.85 72.8998 14.35H72.8748V12.475H68.0998V13.075C69.1998 13.25 69.4248 13.525 69.4248 14.6V21.825C69.4248 22.875 69.2248 23.175 68.0998 23.4V24H74.0998V23.4C73.1748 23.275 72.8998 22.825 72.8998 21.9V15.3C72.8998 15.2 73.0748 14.95 73.3248 14.7C73.8748 14.15 74.4748 13.85 75.0748 13.85C75.9248 13.85 76.3498 14.575 76.3498 15.975V21.9C76.3498 22.9 76.0498 23.3 75.1998 23.4V24H81.0498ZM88.0164 22.3C86.0164 22.3 85.4914 22.05 85.4914 21.375C85.4914 20.625 86.2414 20.15 87.2164 20.15C89.4914 20.15 89.5664 20.15 90.3914 19.8C91.9164 19.175 92.6914 18.075 92.6914 16.5C92.6914 15.5 92.3914 14.675 91.6914 14.05H93.6914V12.725H90.4664C89.3664 12.325 88.6664 12.175 87.6664 12.175C84.6914 12.175 82.5914 13.725 82.5914 16.2C82.5914 18.1 83.9164 19.5 85.6914 20C83.6914 20.575 82.7164 21.45 82.7164 22.925C82.7164 23.85 83.1664 24.4 84.7664 24.975C83.1914 25.2 82.3664 25.825 82.3664 26.85C82.3664 28.35 84.0664 29.15 87.2164 29.15C91.3914 29.15 93.7414 27.65 93.7414 25.3C93.7414 23.45 92.0164 22.3 89.3164 22.3H88.0164ZM89.3164 16.2C89.3164 18.55 88.8664 19.45 87.6664 19.45C86.4664 19.45 86.0164 18.55 86.0164 16.225C86.0164 13.775 86.4664 12.95 87.6414 12.95C88.8414 12.95 89.3164 13.875 89.3164 16.2ZM89.5414 25.3C91.1664 25.3 91.7664 25.85 91.7664 26.7C91.7664 27.65 90.3914 28.35 87.9164 28.35C85.7164 28.35 84.5664 27.775 84.5664 26.675C84.5664 26.15 84.7414 25.875 85.4414 25.3H89.5414ZM116.291 24V23.375C114.491 23.15 114.091 22.875 114.091 21.55V9.575C114.091 8.225 114.591 7.85 116.291 7.725V7.1H107.816V7.725C109.566 7.85 110.041 8.175 110.041 9.575V14.675H104.016V9.575C104.016 8.175 104.491 7.85 106.241 7.725V7.1H97.8414V7.725C99.5164 7.875 99.9664 8.2 99.9664 9.575V21.55C99.9664 22.875 99.5914 23.15 97.8414 23.375V24H106.241V23.375C104.416 23.175 104.016 22.875 104.016 21.55V15.85H110.041V21.55C110.041 22.825 109.641 23.175 107.816 23.375V24H116.291ZM128.874 18.275C128.874 14.725 126.474 12.175 123.324 12.175C120.024 12.175 117.599 14.65 117.599 18.3C117.599 21.85 120.099 24.35 123.224 24.35C126.449 24.35 128.874 21.8 128.874 18.275ZM125.199 18.55C125.199 22.275 124.699 23.575 123.249 23.575C121.799 23.575 121.274 22.175 121.274 18.55C121.274 14.275 121.724 12.95 123.249 12.95C124.724 12.95 125.199 14.275 125.199 18.55ZM125.049 28.325C125.049 27.425 124.274 26.725 123.399 26.725C122.524 26.725 121.824 27.45 121.824 28.325C121.824 29.225 122.524 29.95 123.399 29.95C124.324 29.95 125.049 29.225 125.049 28.325ZM127.849 10.8L124.774 6.4H122.474L119.424 10.8H120.824L123.624 8.35L126.424 10.8H127.849ZM135.449 8.675C135.449 7.6 134.599 6.725 133.549 6.725C132.424 6.725 131.574 7.575 131.574 8.675C131.574 9.775 132.399 10.6 133.499 10.6C134.599 10.6 135.449 9.775 135.449 8.675ZM136.474 24V23.4C135.599 23.275 135.274 22.95 135.274 21.875V12.475H130.449V13.075C131.549 13.3 131.799 13.55 131.799 14.675V21.8C131.799 22.95 131.624 23.125 130.474 23.4V24H136.474Z" fill="#F15F22"/>
<path fill-rule="evenodd" clip-rule="evenodd" d="M0.610803 22.2806C0.825542 14.8522 3.06497 7.10011 10.0287 4.15648C16.1948 1.53649 24.0174 4.63424 26.1495 11.0301C28.1128 16.9482 24.3855 23.6831 18.5876 24.1917C13.3265 24.654 10.3354 21.4176 10.4581 17.1485C10.5655 14.7135 12.5902 12.2168 15.6272 12.2476C10.7189 14.2974 10.7342 22.8046 18.2961 22.3577C21.9007 22.1419 25.4746 18.0886 24.1861 13.2802C22.8057 8.11728 17.5599 5.34318 13.0964 6.62235C6.76156 8.44093 3.54046 15.6074 6.28606 21.9262C9.21573 28.6611 18.1888 31.4968 25.8274 26.3647C31.2879 22.6967 33.6654 14.4823 30.7357 7.17717C30.659 8.28681 30.5977 9.41187 30.521 10.5215C26.717 2.29167 20.4742 -1.57667 12.3908 0.596382C3.92393 2.8619 -1.96607 12.0935 0.610803 22.2806Z" fill="#F15F22"/>
</svg>
