<svg width="137" height="158" viewBox="0 0 137 158" fill="none" xmlns="http://www.w3.org/2000/svg">
<g clip-path="url(#clip0)">
<path d="M10.3613 131.576C18.4969 148.856 97.0128 146.299 116.814 132.894C136.616 119.488 92.638 6.97403 39.4498 9.2987C0.613962 11.0035 -10.5149 87.3301 10.3613 131.576Z" fill="#E5F6FF"/>
<path d="M126.332 123.595C122.955 123.053 120.882 104.998 124.873 101.511C128.864 98.0236 137 106.005 137 112.049C137 118.093 132.165 124.602 126.332 123.595Z" fill="#E5F6FF"/>
<path d="M31.0839 4.4169C31.9282 6.97404 23.7926 12.3983 20.8761 10.3061C18.0363 8.21386 19.7248 1.78228 22.2576 0.464967C24.8671 -0.852345 29.8559 0.697433 31.0839 4.4169Z" fill="#E5F6FF"/>
<path d="M63.9332 138.783C63.9332 139.402 63.7797 151.258 61.4005 156.063C60.7865 157.302 60.019 158.077 59.0979 158.077C55.7977 157.922 48.1993 143.742 45.2061 135.683C44.5153 133.823 44.0548 132.351 43.9781 131.344C43.9013 130.646 44.0548 130.259 44.3618 130.259C45.0526 130.259 45.7433 130.259 46.4341 130.336C46.5108 130.336 46.5876 130.336 46.7411 130.414C55.0302 131.344 63.0122 138.008 63.9332 138.783C63.8565 138.705 63.9332 138.783 63.9332 138.783Z" fill="url(#paint0_linear)"/>
<path d="M63.9332 138.783C52.8811 139.713 45.5898 133.823 43.978 131.344C43.5942 130.724 43.5942 130.259 43.978 130.259C44.7455 130.181 45.5898 130.259 46.434 130.336C46.5108 130.336 46.5875 130.336 46.741 130.414C54.0323 131.421 62.9354 138.008 63.9332 138.783C63.8564 138.705 63.9332 138.783 63.9332 138.783Z" fill="url(#paint1_linear)"/>
<path d="M83.8884 131.344C83.8116 132.429 83.2744 134.211 82.4301 136.381C79.2834 144.517 72.0688 157.923 68.7685 158.077C68.001 158.077 67.3103 157.613 66.773 156.683C64.0867 152.266 63.9332 138.86 63.9332 138.86C63.9332 138.86 63.9332 138.86 64.01 138.783C64.8542 138.085 72.9131 131.421 81.2021 130.414C81.2789 130.414 81.3556 130.414 81.4324 130.414C82.1231 130.336 82.8139 130.336 83.5046 130.336C83.8116 130.259 83.8884 130.646 83.8884 131.344Z" fill="url(#paint2_linear)"/>
<path d="M83.8884 131.344C82.3534 133.823 74.9853 139.79 63.9332 138.783C63.9332 138.783 63.9332 138.783 64.01 138.705C64.931 138.008 73.9108 131.421 81.2021 130.336C81.2789 130.336 81.3556 130.336 81.4324 130.336C82.2766 130.259 83.1209 130.181 83.8884 130.259C84.2722 130.259 84.2722 130.646 83.8884 131.344Z" fill="url(#paint3_linear)"/>
<path opacity="0.3" d="M63.9332 138.783C63.9332 139.403 63.7797 151.258 61.4004 156.063C61.4004 156.063 60.7864 143.51 57.4094 140.72C54.1091 137.853 45.206 135.683 45.206 135.683C44.5153 133.823 44.0548 132.351 43.978 131.344C43.5942 130.724 43.5942 130.259 43.978 130.259C44.7455 130.181 45.5898 130.259 46.434 130.336C46.5108 130.336 46.5875 130.336 46.741 130.414C55.0301 131.344 63.0122 138.008 63.9332 138.783C63.8564 138.705 63.9332 138.783 63.9332 138.783Z" fill="url(#paint4_linear)"/>
<path opacity="0.3" d="M83.8884 131.344C83.8117 132.428 83.2744 134.211 82.4301 136.38C80.8951 136.69 72.6061 138.628 69.6895 143.742C67.2335 148.004 66.8498 153.97 66.773 156.683C64.0867 152.266 63.9332 138.86 63.9332 138.86C63.9332 138.86 63.9332 138.86 64.01 138.783C64.8542 138.085 72.9131 131.421 81.2021 130.414C81.2789 130.414 81.3556 130.414 81.4324 130.414C82.2766 130.336 83.1209 130.259 83.8884 130.336C84.2722 130.259 84.2722 130.646 83.8884 131.344Z" fill="url(#paint5_linear)"/>
<path d="M48.2761 95.2339C48.0459 97.636 47.5854 100.348 46.8179 102.983C46.8179 102.983 46.0504 104.068 44.5921 105.772C40.9848 109.957 32.926 117.706 20.4156 121.658C20.1086 121.735 19.8016 121.813 19.4946 121.968C17.4991 122.587 13.8151 116.466 15.7338 111.274C15.8873 110.809 16.1176 110.267 16.4246 109.802C17.1921 108.485 18.8039 106.78 20.8761 104.765C26.3254 99.5733 35.3053 92.7542 43.2106 88.7248C45.0526 87.7949 46.7411 87.0201 48.4296 86.4001C48.4296 86.4001 48.8134 90.1971 48.2761 95.2339Z" fill="url(#paint6_linear)"/>
<path d="M20.4923 121.58C20.2621 121.813 20.0318 122.045 19.8016 122.278C16.8083 124.525 12.4335 123.207 14.8128 113.831C14.8128 113.831 15.043 112.436 15.8105 111.197C16.4245 110.112 17.4991 109.104 19.1108 108.949C23.1786 108.562 23.6391 117.938 20.4923 121.58Z" fill="url(#paint7_linear)"/>
<path opacity="0.3" d="M48.2762 95.2339L44.5921 105.772C40.9849 109.957 32.926 117.706 20.4157 121.658C20.1854 121.89 19.9552 122.123 19.7249 122.355C16.7316 124.602 12.3568 123.285 14.7361 113.909C14.7361 113.909 14.9664 112.514 15.7339 111.274C15.8874 110.809 16.1176 110.267 16.4246 109.802C17.1921 108.484 18.8039 106.78 20.8762 104.765C20.7227 105.075 19.6482 107.167 21.9507 108.02C24.4067 108.872 37.1473 105.85 42.8269 99.7282C48.4297 93.6841 48.2762 87.9499 43.2874 88.7248C45.1294 87.7949 46.8179 87.0201 48.5064 86.4001C48.4297 86.4001 48.8134 90.1971 48.2762 95.2339Z" fill="url(#paint8_linear)"/>
<path d="M18.2666 112.746C15.1198 112.204 5.52596 119.178 2.45593 133.358C2.45593 133.358 2.68618 134.521 5.52596 134.598C8.36574 134.676 13.2778 129.407 16.5781 126.307C19.8783 123.207 23.5624 113.676 18.2666 112.746Z" fill="url(#paint9_linear)"/>
<path d="M5.526 134.521C5.526 134.521 10.5148 127.004 11.5126 125.145C11.5126 125.145 13.4313 115.846 16.3478 113.986C19.2644 112.204 20.2621 114.219 20.9529 116.543C21.5669 118.868 16.7316 132.893 5.526 134.521Z" fill="url(#paint10_linear)"/>
<path opacity="0.5" d="M11.2822 126.694C11.2822 126.694 12.5102 129.484 13.9685 129.871C13.9685 129.871 12.6637 120.883 14.9663 116.078C14.8895 116.078 12.0497 120.573 11.2822 126.694Z" fill="url(#paint11_linear)"/>
<path d="M16.1943 114.606C16.1943 114.606 19.2643 112.436 20.9528 116.543C20.9528 116.543 20.4156 123.285 16.6548 130.104C16.6548 130.104 14.736 130.646 13.9685 129.871C12.3568 128.089 12.8173 117.008 16.1943 114.606Z" fill="url(#paint12_linear)"/>
<path d="M84.2722 123.827C82.8139 132.506 75.0621 138.318 64.01 138.318C54.3394 138.318 46.2039 134.676 44.0548 126.694C41.9058 118.713 42.7501 103.913 45.5899 94.769C46.0504 93.3742 46.5109 92.0569 47.1249 90.817C47.6621 89.6547 48.2761 88.5699 48.9669 87.5625C52.4974 82.2158 57.6397 78.7288 63.4728 78.7288C69.5361 78.7288 74.1411 81.2084 77.3646 85.0054C78.8229 86.7101 79.9742 88.7248 80.8184 90.817C81.7394 93.2192 82.5837 95.8538 83.1977 98.4884V98.5659C85.1165 106.935 85.577 116.078 84.2722 123.827Z" fill="url(#paint13_linear)"/>
<path opacity="0.3" d="M84.2722 123.827C82.8139 132.506 75.0621 138.318 64.01 138.318C54.3394 138.318 46.2039 134.676 44.0548 126.695C41.9058 118.713 42.7501 103.913 45.5899 94.7691C46.0504 93.3743 46.5109 92.057 47.1249 90.8171C47.1249 90.8171 41.2918 110.344 45.9736 122.82C50.6554 135.296 72.3758 134.986 79.7439 126.695C86.7282 118.868 83.5047 100.348 83.1977 98.566C85.1165 106.935 85.577 116.079 84.2722 123.827Z" fill="url(#paint14_linear)"/>
<path d="M44.4386 118.713C46.0503 107.012 55.4139 99.1083 65.6985 100.116C76.8274 101.2 82.8139 111.894 82.6604 121.115C82.5069 130.336 75.8296 137.465 63.9332 137.465C51.9601 137.388 42.9036 129.639 44.4386 118.713Z" fill="url(#paint15_linear)"/>
<path d="M44.5154 119.643C46.1271 107.942 55.4907 100.038 65.7753 100.968C76.9041 102.053 82.8907 112.747 82.7372 121.968C82.5837 131.189 75.9064 138.318 64.01 138.318C52.0369 138.395 42.9803 130.569 44.5154 119.643Z" fill="url(#paint16_radial)"/>
<path opacity="0.5" d="M77.2878 85.0054C74.9086 88.7248 61.9377 90.8945 54.4161 90.1971C47.8923 89.5772 48.8901 87.795 48.8901 87.5625C52.4206 82.2158 57.5629 78.7288 63.396 78.7288C69.536 78.7288 74.1411 81.2859 77.2878 85.0054Z" fill="url(#paint17_linear)"/>
<path d="M72.6829 91.4369C72.0689 91.6694 72.0689 96.5512 72.6829 97.3261C73.2969 98.101 74.2947 97.8685 74.6784 96.7062C74.9854 95.6213 73.6039 91.127 72.6829 91.4369Z" fill="white"/>
<path d="M73.8341 98.6433C73.2969 98.7983 73.2969 99.9607 73.5271 100.426C73.7574 100.891 74.6017 100.736 74.7552 100.271C74.8319 99.7282 74.2946 98.5659 73.8341 98.6433Z" fill="white"/>
<path opacity="0.72" d="M51.0391 131.576C51.0391 131.576 53.7253 136.226 63.6262 136.303C73.527 136.381 77.5948 130.336 77.5948 130.336C77.5948 130.336 72.9898 133.358 66.466 131.576C59.9421 129.716 53.4951 128.709 51.0391 131.576Z" fill="url(#paint18_linear)"/>
<path opacity="0.72" d="M48.5064 112.204C50.5019 115.381 58.5607 113.676 67.6173 114.606C76.6739 115.536 78.2857 118.481 80.2044 117.861C82.1232 117.241 79.1299 103.448 65.4683 102.518C51.8834 101.588 47.9691 111.429 48.5064 112.204Z" fill="url(#paint19_linear)"/>
<path d="M78.0554 85.8578C78.0554 85.8578 77.3646 84.928 76.4436 84.5405C76.4436 84.5405 78.9764 97.2487 83.9652 102.44C83.9652 102.44 81.7394 90.4297 78.0554 85.8578Z" fill="url(#paint20_linear)"/>
<path d="M83.5046 26.0363C83.5046 26.0363 88.3399 21.8519 94.173 21.1545C94.173 21.1545 95.9383 22.0069 98.0873 28.5935C100.16 35.1026 96.322 48.0432 96.322 48.0432L83.5046 26.0363Z" fill="url(#paint21_linear)"/>
<path d="M94.173 21.1546C94.173 21.1546 89.4144 26.2688 89.4144 34.5602L91.2564 35.7225L96.629 24.5641C96.629 24.5641 94.8637 20.9996 94.173 21.1546Z" fill="url(#paint22_linear)"/>
<path d="M91.103 35.1799C91.103 35.1799 89.875 28.1284 94.4801 22.8591C94.4801 22.8591 99.6991 25.3388 101.848 34.56C103.997 43.7811 98.3944 49.2829 98.3944 49.2829L91.103 35.1799Z" fill="url(#paint23_linear)"/>
<path d="M88.4168 23.1693C87.4958 23.6342 87.5725 24.6416 89.4145 24.4091C91.2565 24.1766 92.2543 22.7043 92.024 22.3944C91.8705 22.1619 89.4145 22.6268 88.4168 23.1693Z" fill="white"/>
<path d="M43.2106 27.0437C43.2106 27.0437 38.3753 22.8593 32.5422 22.1619C32.5422 22.1619 30.7769 23.0142 28.6279 29.6008C26.5557 36.1099 30.3932 49.0505 30.3932 49.0505L43.2106 27.0437Z" fill="url(#paint24_linear)"/>
<path d="M32.5422 22.1617C32.5422 22.1617 37.3007 27.2759 37.3007 35.5673L35.4587 36.7296L30.0862 25.5712C30.1629 25.5712 31.9282 22.0842 32.5422 22.1617Z" fill="url(#paint25_linear)"/>
<path d="M35.689 36.1872C35.689 36.1872 36.917 29.1357 32.312 23.8665C32.312 23.8665 27.0929 26.3461 24.9439 35.5673C22.7949 44.7885 29.0117 50.9101 29.0117 50.9101L35.689 36.1872Z" fill="url(#paint26_linear)"/>
<path d="M38.3752 24.2541C39.2962 24.719 39.2195 25.7264 37.3775 25.4939C35.5354 25.2614 34.5377 23.7891 34.7679 23.4792C34.9214 23.1692 37.3775 23.7117 38.3752 24.2541Z" fill="white"/>
<path d="M29.7791 71.8322C37.1472 88.9573 92.1774 83.6106 98.778 69.5851C105.993 54.1647 89.4144 16.1952 63.0889 17.9774C40.7545 19.4497 20.3388 49.8254 29.7791 71.8322Z" fill="url(#paint27_linear)"/>
<path d="M32.7725 69.43C39.8336 83.4555 87.8795 81.1309 94.8638 68.2677C100.85 57.2642 86.7283 23.944 62.6285 25.1063C38.5288 26.2687 26.0185 55.9469 32.7725 69.43Z" fill="url(#paint28_linear)"/>
<path d="M70.7641 21.1545C70.2268 21.7744 76.1366 24.3315 76.9041 23.9441C77.6716 23.5566 72.4526 19.0623 70.7641 21.1545Z" fill="white"/>
<path opacity="0.5" d="M41.2918 39.1319C40.7545 42.4639 47.0481 42.0764 57.0257 41.7665C69.0755 41.379 81.2021 51.84 88.2632 44.3236C89.4145 43.0838 77.9019 26.8111 63.9332 27.1211C49.9646 27.586 41.7523 36.2648 41.2918 39.1319Z" fill="url(#paint29_linear)"/>
<path opacity="0.5" d="M47.5086 74.0794C46.8945 76.4816 51.8833 78.9612 64.2402 78.3413C79.2066 77.5664 82.3534 74.4669 81.5859 73.537C81.1254 72.9946 76.6738 75.8617 64.3937 73.1495C56.3349 71.3673 48.1226 71.5223 47.5086 74.0794Z" fill="url(#paint30_linear)"/>
<path opacity="0.2" d="M34.154 66.563C34.154 66.563 33.6167 63.076 34.2307 58.3491C34.8447 53.6223 36.0727 50.6002 36.8402 50.9877C37.6078 51.4526 37.4543 56.0245 37.9148 60.5963C38.2218 64.1608 38.9125 67.4928 38.9125 67.4928C38.9125 67.4928 35.689 70.5924 34.154 66.563Z" fill="url(#paint31_linear)"/>
<path opacity="0.5" d="M35.1517 77.6439C35.1517 77.6439 35.9192 76.869 39.9103 74.4669C42.5965 72.9171 45.3596 70.9799 45.8201 70.2825C46.4341 68.6552 34.3842 69.5851 34.3842 69.5851L29.7792 71.8322C29.7792 71.8322 31.5444 75.4742 35.1517 77.6439Z" fill="url(#paint32_linear)"/>
<path d="M25.9416 41.844C25.9416 41.844 29.0117 43.8587 27.0161 48.508C27.0161 48.508 12.5103 56.4894 13.3545 65.1682C14.0453 72.4521 34.0772 68.8876 34.0772 68.8876L34.768 71.2898C34.768 71.2898 17.7293 74.6218 11.8963 70.5924C11.8963 70.5924 9.90073 65.7881 14.8895 57.1868C19.8783 48.5855 25.9416 41.844 25.9416 41.844Z" fill="url(#paint33_linear)"/>
<path d="M31.5444 68.2677C29.7024 70.3599 33.6167 72.6071 36.7635 72.9945C40.3708 73.382 46.6643 71.9872 46.2806 68.3452C45.9736 64.6257 35.8425 63.3859 31.5444 68.2677Z" fill="url(#paint34_linear)"/>
<path d="M31.8514 68.6552C31.7747 69.2751 44.5153 69.43 44.8223 67.1054C45.1293 64.7807 32.6189 64.0058 31.8514 68.6552Z" fill="url(#paint35_linear)"/>
<path opacity="0.72" d="M98.7014 27.0436C98.7014 27.0436 97.0128 24.9514 94.7103 25.4938C92.4078 26.0363 92.2543 33.3977 93.6358 33.5527C95.0173 33.7077 95.6313 29.5233 96.6291 28.8259C97.7036 28.1285 99.5456 28.4384 99.5456 28.4384L98.7014 27.0436Z" fill="url(#paint36_linear)"/>
<path opacity="0.5" d="M77.5948 80.821C77.5948 80.821 69.6895 72.7621 67.1567 64.7808L86.8817 77.8764C86.9584 77.8764 80.2044 80.2786 77.5948 80.821Z" fill="url(#paint37_linear)"/>
<path opacity="0.72" d="M26.8627 30.1431C26.8627 30.1431 27.7837 29.1358 29.7792 29.4457C31.7747 29.7557 32.926 33.9401 33.9237 33.4751C34.9215 33.0877 34.2307 26.3462 31.4677 24.4089C31.4677 24.4089 28.0139 27.431 26.8627 30.1431Z" fill="url(#paint38_linear)"/>
<path d="M23.1786 46.4934C23.1786 46.4934 16.2711 54.6297 16.6548 55.1722C17.1153 55.7921 23.6391 47.3458 23.1786 46.4934Z" fill="url(#paint39_linear)"/>
<path d="M41.7522 49.283C41.7522 49.283 48.1225 48.3532 54.3394 50.2129C55.2604 50.5229 52.4206 47.1134 48.0458 46.4934C43.671 45.8735 41.4452 47.7333 41.7522 49.283Z" fill="url(#paint40_radial)"/>
<path d="M57.0257 62.921C58.1002 59.589 62.2447 59.7439 63.089 62.6885C64.01 65.8656 60.3259 69.5075 58.7142 68.9651C57.0257 68.4227 56.1814 65.4006 57.0257 62.921Z" fill="#2F95CD"/>
<path d="M67.9243 58.8142C64.01 47.8882 74.2946 33.9402 90.0285 32.158C90.0285 32.158 104.918 41.8441 101.464 68.6553C101.464 68.5778 77.9786 87.0977 67.9243 58.8142Z" fill="url(#paint41_linear)"/>
<path d="M89.9517 32.158C89.9517 32.158 95.2475 32.2354 101.541 37.4272C107.835 42.619 110.751 58.1168 101.464 68.5778C101.464 68.5778 105.609 47.1133 89.9517 32.158Z" fill="url(#paint42_linear)"/>
<path d="M76.9809 55.2496C77.4414 60.2089 92.1008 59.744 94.48 55.2496C96.3988 51.6076 90.8727 39.8293 85.0397 40.6817C79.1299 41.534 76.3669 48.1981 76.9809 55.2496Z" fill="url(#paint43_radial)"/>
<path d="M87.8795 32.313C75.3691 32.313 65.1613 42.5415 65.1613 55.2497C65.1613 67.9579 75.2923 78.1865 87.8795 78.1865C100.467 78.1865 110.598 67.9579 110.598 55.2497C110.598 42.5415 100.39 32.313 87.8795 32.313ZM87.8795 74.312C77.4414 74.312 68.9988 65.7882 68.9988 55.2497C68.9988 44.7112 77.4414 36.1874 87.8795 36.1874C98.3176 36.1874 106.76 44.7112 106.76 55.2497C106.76 65.7882 98.3176 74.312 87.8795 74.312Z" fill="url(#paint44_linear)"/>
<path d="M87.8795 30.6855C75.3691 30.6855 65.1613 40.9141 65.1613 53.6223C65.1613 66.253 75.2923 76.559 87.8795 76.559C100.467 76.559 110.598 66.3305 110.598 53.6223C110.598 40.9916 100.39 30.6855 87.8795 30.6855ZM87.8795 72.7621C77.4414 72.7621 68.9988 64.2383 68.9988 53.6998C68.9988 43.1613 77.4414 34.6375 87.8795 34.6375C98.3176 34.6375 106.76 43.1613 106.76 53.6998C106.76 64.1608 98.3176 72.7621 87.8795 72.7621Z" fill="url(#paint45_linear)"/>
<path d="M113.13 89.1898C113.13 89.1898 108.218 98.566 102.002 101.666C95.7847 104.765 86.2676 101.046 83.1976 98.566C78.9763 95.234 77.4413 83.6106 79.2066 83.6106C80.8183 83.6106 82.3534 84.8505 87.4957 85.4704C88.8772 85.6253 90.4889 85.7803 92.4844 85.8578C97.0895 86.0128 101.388 84.8505 104.227 83.9206C106.223 83.2232 107.451 82.6033 107.451 82.6033C111.058 82.6033 113.13 89.1898 113.13 89.1898Z" fill="url(#paint46_linear)"/>
<path d="M106.76 82.9907C106.76 82.9907 106.3 89.8872 108.909 90.8171C111.519 91.747 113.13 89.1898 113.13 89.1898L114.435 86.4002L106.76 82.9907Z" fill="url(#paint47_linear)"/>
<path d="M98.7013 74.6217C98.7013 74.6217 108.065 85.0052 114.435 89.1897C114.435 89.1897 118.426 88.7247 119.194 84.7728L105.532 68.8101L98.7013 74.6217Z" fill="url(#paint48_linear)"/>
<path opacity="0.5" d="M115.433 80.356C115.433 80.356 106.683 73.6145 105.072 73.0721C105.072 73.0721 103.844 74.6993 103.23 76.6366C102.692 78.5738 112.67 88.0274 112.67 88.0274C112.67 88.0274 103.383 80.4335 99.1619 75.2418C99.1619 75.2418 103.844 71.9097 105.993 69.5076L115.433 80.356Z" fill="url(#paint49_linear)"/>
<path d="M104.074 80.356C103.92 80.8984 100.16 81.9833 99.085 79.9686C99.0083 79.7361 98.9315 79.5811 98.8548 79.3487C98.2407 77.5664 99.085 76.1716 99.8525 75.7842L99.9293 75.8617C100.467 76.3266 104.151 79.8911 104.074 80.356Z" fill="url(#paint50_linear)"/>
<path d="M115.433 80.3561L113.591 78.1864C113.591 78.1864 107.297 75.0093 106.069 69.4301C106.069 69.4301 107.528 66.4081 110.598 66.3306C111.826 66.3306 112.977 67.9578 113.821 70.1275C115.049 73.4596 115.74 78.1089 115.433 80.3561Z" fill="url(#paint51_linear)"/>
<path opacity="0.3" d="M113.13 89.1898C113.13 89.1898 108.218 98.566 102.002 101.666C95.7847 104.765 86.2676 101.046 83.1976 98.566C78.9763 95.234 77.4413 83.6106 79.2066 83.6106C80.8183 83.6106 82.3534 84.8505 87.4957 85.4704C87.1886 85.4704 82.8139 85.1604 82.0464 86.4002C81.2788 87.7175 90.0284 100.581 98.7013 97.0162C107.451 93.4517 105.609 83.9206 104.151 83.9206C106.146 83.2232 107.374 82.6033 107.374 82.6033C111.058 82.6033 113.13 89.1898 113.13 89.1898Z" fill="url(#paint52_linear)"/>
<path opacity="0.3" d="M104.074 80.3559C103.92 80.8983 100.16 81.9832 99.085 79.9685C99.0082 79.736 98.9315 79.581 98.8547 79.3486C99.699 80.4334 101.004 80.2009 101.388 79.0386C101.771 77.8763 100.313 76.1715 100.006 75.8616C100.467 76.3265 104.151 79.891 104.074 80.3559Z" fill="url(#paint53_linear)"/>
<path opacity="0.3" d="M115.433 80.3561L113.591 78.1864C113.591 78.1864 107.297 75.0094 106.069 69.4302C106.223 69.7401 109.216 74.467 112.44 74.9319C114.819 75.2418 113.898 70.515 113.821 70.1276C115.049 73.4596 115.74 78.1089 115.433 80.3561Z" fill="url(#paint54_linear)"/>
<path d="M14.8895 119.643C14.8895 119.643 13.815 121.193 14.0453 123.595C14.0453 123.595 15.1965 122.045 14.8895 119.643Z" fill="white"/>
<path d="M6.52368 129.794C6.52368 129.794 6.75393 128.012 8.28895 126.772C8.28895 126.772 7.52144 129.329 6.52368 129.794Z" fill="white"/>
<path d="M25.5579 102.905C25.3276 102.518 29.9327 98.0234 31.3142 97.8684C32.619 97.7134 30.8537 98.3333 29.7792 100.038C28.7047 101.743 26.0184 103.603 25.5579 102.905Z" fill="white"/>
<path d="M32.5422 96.8611C32.0817 96.3186 34.6144 95.3113 34.6144 95.3113C34.6144 95.3113 33.0794 97.481 32.5422 96.8611Z" fill="white"/>
<path d="M87.8794 88.6474C87.7259 89.7322 93.0985 89.7322 93.0217 88.6474C92.945 87.64 88.033 87.64 87.8794 88.6474Z" fill="white"/>
<path d="M52.2671 144.129C51.5764 144.439 52.8811 148.159 53.8789 148.081C54.8766 148.004 53.1114 143.742 52.2671 144.129Z" fill="white"/>
<path opacity="0.5" d="M87.8794 72.6846C98.3069 72.6846 106.76 64.4624 106.76 54.3197C106.76 44.1771 98.3069 35.9548 87.8794 35.9548C77.4519 35.9548 68.9988 44.1771 68.9988 54.3197C68.9988 64.4624 77.4519 72.6846 87.8794 72.6846Z" fill="url(#paint55_radial)"/>
<path opacity="0.5" d="M71.1478 49.8253C71.3013 53.2348 76.7506 54.3971 87.3422 49.1279C95.7847 44.9435 103.844 49.7478 104.611 48.4305C105.379 47.1132 96.4755 36.3422 86.8817 37.5046C77.2878 38.6669 70.9943 46.8032 71.1478 49.8253Z" fill="url(#paint56_linear)"/>
</g>
<defs>
<linearGradient id="paint0_linear" x1="51.438" y1="157.03" x2="54.6956" y2="131.339" gradientUnits="userSpaceOnUse">
<stop stop-color="#CBC1F7"/>
<stop offset="1" stop-color="#E8DCF7"/>
</linearGradient>
<linearGradient id="paint1_linear" x1="53.7923" y1="138.861" x2="53.7923" y2="130.17" gradientUnits="userSpaceOnUse">
<stop stop-color="#BE9DEA"/>
<stop offset="1" stop-color="#9E8CEF"/>
</linearGradient>
<linearGradient id="paint2_linear" x1="70.9907" y1="158.325" x2="74.6956" y2="129.107" gradientUnits="userSpaceOnUse">
<stop stop-color="#CBC1F7"/>
<stop offset="1" stop-color="#E8DCF7"/>
</linearGradient>
<linearGradient id="paint3_linear" x1="74.0388" y1="138.885" x2="74.0388" y2="130.193" gradientUnits="userSpaceOnUse">
<stop stop-color="#BE9DEA"/>
<stop offset="1" stop-color="#9E8CEF"/>
</linearGradient>
<linearGradient id="paint4_linear" x1="53.7923" y1="156.019" x2="53.7923" y2="130.17" gradientUnits="userSpaceOnUse">
<stop stop-color="#9D68C2"/>
<stop offset="1" stop-color="#CCEDFF"/>
</linearGradient>
<linearGradient id="paint5_linear" x1="74.0388" y1="156.608" x2="74.0388" y2="130.193" gradientUnits="userSpaceOnUse">
<stop stop-color="#9D68C2"/>
<stop offset="1" stop-color="#CCEDFF"/>
</linearGradient>
<linearGradient id="paint6_linear" x1="29.4261" y1="123.229" x2="34.3241" y2="84.6018" gradientUnits="userSpaceOnUse">
<stop stop-color="#CBC1F7"/>
<stop offset="1" stop-color="#E8DCF7"/>
</linearGradient>
<linearGradient id="paint7_linear" x1="18.311" y1="123.258" x2="18.311" y2="108.933" gradientUnits="userSpaceOnUse">
<stop stop-color="#BE9DEA"/>
<stop offset="1" stop-color="#9E8CEF"/>
</linearGradient>
<linearGradient id="paint8_linear" x1="31.3209" y1="123.258" x2="31.3209" y2="86.3949" gradientUnits="userSpaceOnUse">
<stop stop-color="#9D68C2"/>
<stop offset="1" stop-color="#CCEDFF"/>
</linearGradient>
<linearGradient id="paint9_linear" x1="10.4452" y1="135.201" x2="13.3752" y2="112.095" gradientUnits="userSpaceOnUse">
<stop stop-color="#CBC1F7"/>
<stop offset="1" stop-color="#E8DCF7"/>
</linearGradient>
<linearGradient id="paint10_linear" x1="13.2544" y1="134.539" x2="13.2544" y2="113.352" gradientUnits="userSpaceOnUse">
<stop stop-color="#BE9DEA"/>
<stop offset="1" stop-color="#9E8CEF"/>
</linearGradient>
<linearGradient id="paint11_linear" x1="13.0899" y1="129.894" x2="13.0899" y2="116.096" gradientUnits="userSpaceOnUse">
<stop stop-color="#8DA4E5"/>
<stop offset="1" stop-color="#755CBB"/>
</linearGradient>
<linearGradient id="paint12_linear" x1="15.7044" y1="130.413" x2="17.7854" y2="114.002" gradientUnits="userSpaceOnUse">
<stop stop-color="#CBC1F7"/>
<stop offset="1" stop-color="#E8DCF7"/>
</linearGradient>
<linearGradient id="paint13_linear" x1="60.9099" y1="138.265" x2="68.4002" y2="79.1952" gradientUnits="userSpaceOnUse">
<stop stop-color="#CBC1F7"/>
<stop offset="1" stop-color="#E8DCF7"/>
</linearGradient>
<linearGradient id="paint14_linear" x1="63.8976" y1="138.366" x2="63.8976" y2="90.8275" gradientUnits="userSpaceOnUse">
<stop stop-color="#9D68C2"/>
<stop offset="1" stop-color="#CCEDFF"/>
</linearGradient>
<linearGradient id="paint15_linear" x1="63.4465" y1="137.399" x2="63.4465" y2="99.9581" gradientUnits="userSpaceOnUse">
<stop stop-color="#BE9DEA"/>
<stop offset="1" stop-color="#9E8CEF"/>
</linearGradient>
<radialGradient id="paint16_radial" cx="0" cy="0" r="1" gradientUnits="userSpaceOnUse" gradientTransform="translate(64.1899 132.557) scale(28.2989 28.5711)">
<stop stop-color="#45FFCD"/>
<stop offset="1" stop-color="#22E0FF"/>
</radialGradient>
<linearGradient id="paint17_linear" x1="63.0849" y1="90.3241" x2="63.0849" y2="78.7351" gradientUnits="userSpaceOnUse">
<stop stop-color="#8DA4E5"/>
<stop offset="1" stop-color="#755CBB"/>
</linearGradient>
<linearGradient id="paint18_linear" x1="64.347" y1="136.28" x2="64.347" y2="129.794" gradientUnits="userSpaceOnUse">
<stop stop-color="#D4E2FF"/>
<stop offset="1"/>
</linearGradient>
<linearGradient id="paint19_linear" x1="48.4388" y1="110.202" x2="80.687" y2="110.202" gradientUnits="userSpaceOnUse">
<stop/>
<stop offset="1" stop-color="#D4E2FF"/>
</linearGradient>
<linearGradient id="paint20_linear" x1="76.4454" y1="93.4891" x2="83.9341" y2="93.4891" gradientUnits="userSpaceOnUse">
<stop stop-color="#8879EA"/>
<stop offset="1" stop-color="#9E8CEF"/>
</linearGradient>
<linearGradient id="paint21_linear" x1="91.102" y1="47.9942" x2="91.102" y2="21.1247" gradientUnits="userSpaceOnUse">
<stop stop-color="#B9ACF4"/>
<stop offset="1" stop-color="#E1D1F5"/>
</linearGradient>
<linearGradient id="paint22_linear" x1="93.0347" y1="35.7295" x2="93.0347" y2="21.1227" gradientUnits="userSpaceOnUse">
<stop stop-color="#BE9DEA"/>
<stop offset="1" stop-color="#9E8CEF"/>
</linearGradient>
<linearGradient id="paint23_linear" x1="96.6316" y1="49.2797" x2="96.6316" y2="22.8796" gradientUnits="userSpaceOnUse">
<stop stop-color="#45FFCD"/>
<stop offset="1" stop-color="#22E0FF"/>
</linearGradient>
<linearGradient id="paint24_linear" x1="35.6581" y1="49.042" x2="35.6581" y2="22.1726" gradientUnits="userSpaceOnUse">
<stop stop-color="#B9ACF4"/>
<stop offset="1" stop-color="#E1D1F5"/>
</linearGradient>
<linearGradient id="paint25_linear" x1="33.7252" y1="36.7771" x2="33.7252" y2="22.1704" gradientUnits="userSpaceOnUse">
<stop stop-color="#BE9DEA"/>
<stop offset="1" stop-color="#9E8CEF"/>
</linearGradient>
<linearGradient id="paint26_linear" x1="30.148" y1="50.9234" x2="30.148" y2="23.9274" gradientUnits="userSpaceOnUse">
<stop stop-color="#45FFCD"/>
<stop offset="1" stop-color="#22E0FF"/>
</linearGradient>
<linearGradient id="paint27_linear" x1="60.9958" y1="83.4751" x2="69.2678" y2="18.2401" gradientUnits="userSpaceOnUse">
<stop stop-color="#CBC1F7"/>
<stop offset="1" stop-color="#E8DCF7"/>
</linearGradient>
<linearGradient id="paint28_linear" x1="63.6096" y1="79.0071" x2="63.6096" y2="25.0631" gradientUnits="userSpaceOnUse">
<stop stop-color="#0665BD"/>
<stop offset="1" stop-color="#1A1F77"/>
</linearGradient>
<linearGradient id="paint29_linear" x1="41.2304" y1="37.1275" x2="88.363" y2="37.1275" gradientUnits="userSpaceOnUse">
<stop/>
<stop offset="1" stop-color="#6A9BFF"/>
</linearGradient>
<linearGradient id="paint30_linear" x1="47.4284" y1="75.1828" x2="81.6971" y2="75.1828" gradientUnits="userSpaceOnUse">
<stop/>
<stop offset="1" stop-color="#6A9BFF"/>
</linearGradient>
<linearGradient id="paint31_linear" x1="36.1592" y1="68.5763" x2="37.3778" y2="50.9701" gradientUnits="userSpaceOnUse">
<stop/>
<stop offset="1" stop-color="#00E3FF"/>
</linearGradient>
<linearGradient id="paint32_linear" x1="37.7743" y1="77.6403" x2="37.7743" y2="69.3684" gradientUnits="userSpaceOnUse">
<stop stop-color="#8DA4E5"/>
<stop offset="1" stop-color="#755CBB"/>
</linearGradient>
<linearGradient id="paint33_linear" x1="22.7007" y1="73.071" x2="26.6526" y2="41.9053" gradientUnits="userSpaceOnUse">
<stop stop-color="#BE9DEA"/>
<stop offset="1" stop-color="#9E8CEF"/>
</linearGradient>
<linearGradient id="paint34_linear" x1="37.7589" y1="73.2559" x2="39.7904" y2="64.7106" gradientUnits="userSpaceOnUse">
<stop stop-color="#DD1A8F"/>
<stop offset="1" stop-color="#FE117E"/>
</linearGradient>
<linearGradient id="paint35_linear" x1="38.2965" y1="69.0003" x2="38.2965" y2="65.2693" gradientUnits="userSpaceOnUse">
<stop stop-color="#D93DE3"/>
<stop offset="1" stop-color="#FF6DBA"/>
</linearGradient>
<linearGradient id="paint36_linear" x1="92.7312" y1="29.4715" x2="99.5346" y2="29.4715" gradientUnits="userSpaceOnUse">
<stop/>
<stop offset="1" stop-color="#D4E2FF"/>
</linearGradient>
<linearGradient id="paint37_linear" x1="77.0774" y1="80.8277" x2="77.0774" y2="64.7674" gradientUnits="userSpaceOnUse">
<stop stop-color="#8DA4E5"/>
<stop offset="1" stop-color="#755CBB"/>
</linearGradient>
<linearGradient id="paint38_linear" x1="26.868" y1="28.9928" x2="34.366" y2="28.9928" gradientUnits="userSpaceOnUse">
<stop stop-color="#D4E2FF"/>
<stop offset="1"/>
</linearGradient>
<linearGradient id="paint39_linear" x1="19.9369" y1="55.2459" x2="19.9369" y2="46.5218" gradientUnits="userSpaceOnUse">
<stop stop-color="#CBC1F7"/>
<stop offset="1" stop-color="#E8DCF7"/>
</linearGradient>
<radialGradient id="paint40_radial" cx="0" cy="0" r="1" gradientUnits="userSpaceOnUse" gradientTransform="translate(48.3223 49.6555) scale(9.05812 9.14526)">
<stop stop-color="#45FFCD"/>
<stop offset="1" stop-color="#22E0FF"/>
</radialGradient>
<linearGradient id="paint41_linear" x1="84.526" y1="74.5265" x2="84.526" y2="32.124" gradientUnits="userSpaceOnUse">
<stop stop-color="#0665BD"/>
<stop offset="1" stop-color="#1A1F77"/>
</linearGradient>
<linearGradient id="paint42_linear" x1="95.6137" y1="67.851" x2="99.987" y2="33.3622" gradientUnits="userSpaceOnUse">
<stop stop-color="#CBC1F7"/>
<stop offset="1" stop-color="#E8DCF7"/>
</linearGradient>
<radialGradient id="paint43_radial" cx="0" cy="0" r="1" gradientUnits="userSpaceOnUse" gradientTransform="translate(86.1665 55.9855) scale(13.2991 13.4271)">
<stop stop-color="#45FFCD"/>
<stop offset="1" stop-color="#22E0FF"/>
</radialGradient>
<linearGradient id="paint44_linear" x1="82.6632" y1="77.5592" x2="93.2598" y2="32.9779" gradientUnits="userSpaceOnUse">
<stop stop-color="#DD1A8F"/>
<stop offset="1" stop-color="#FE117E"/>
</linearGradient>
<linearGradient id="paint45_linear" x1="82.6632" y1="75.9555" x2="93.2598" y2="31.3743" gradientUnits="userSpaceOnUse">
<stop stop-color="#D93DE3"/>
<stop offset="1" stop-color="#FF6DBA"/>
</linearGradient>
<linearGradient id="paint46_linear" x1="93.8624" y1="102.713" x2="96.5911" y2="81.1942" gradientUnits="userSpaceOnUse">
<stop stop-color="#CBC1F7"/>
<stop offset="1" stop-color="#E8DCF7"/>
</linearGradient>
<linearGradient id="paint47_linear" x1="110.591" y1="91.0368" x2="110.591" y2="82.9843" gradientUnits="userSpaceOnUse">
<stop stop-color="#BE9DEA"/>
<stop offset="1" stop-color="#9E8CEF"/>
</linearGradient>
<linearGradient id="paint48_linear" x1="108.305" y1="88.7597" x2="109.713" y2="69.1137" gradientUnits="userSpaceOnUse">
<stop stop-color="#A242EA"/>
<stop offset="1" stop-color="#FE117E"/>
</linearGradient>
<linearGradient id="paint49_linear" x1="107.285" y1="87.9256" x2="107.285" y2="69.3861" gradientUnits="userSpaceOnUse">
<stop stop-color="#8DA4E5"/>
<stop offset="1" stop-color="#755CBB"/>
</linearGradient>
<linearGradient id="paint50_linear" x1="101.073" y1="81.1282" x2="101.721" y2="76.0226" gradientUnits="userSpaceOnUse">
<stop stop-color="#CBC1F7"/>
<stop offset="1" stop-color="#E8DCF7"/>
</linearGradient>
<linearGradient id="paint51_linear" x1="110.114" y1="79.6631" x2="111.794" y2="66.4099" gradientUnits="userSpaceOnUse">
<stop stop-color="#CBC1F7"/>
<stop offset="1" stop-color="#E8DCF7"/>
</linearGradient>
<linearGradient id="paint52_linear" x1="95.7886" y1="102.884" x2="95.7886" y2="82.5902" gradientUnits="userSpaceOnUse">
<stop stop-color="#9D68C2"/>
<stop offset="1" stop-color="#CCEDFF"/>
</linearGradient>
<linearGradient id="paint53_linear" x1="101.42" y1="81.1459" x2="101.42" y2="75.8524" gradientUnits="userSpaceOnUse">
<stop stop-color="#9D68C2"/>
<stop offset="1" stop-color="#CCEDFF"/>
</linearGradient>
<linearGradient id="paint54_linear" x1="110.759" y1="80.3354" x2="110.759" y2="69.3862" gradientUnits="userSpaceOnUse">
<stop stop-color="#9D68C2"/>
<stop offset="1" stop-color="#CCEDFF"/>
</linearGradient>
<radialGradient id="paint55_radial" cx="0" cy="0" r="1" gradientUnits="userSpaceOnUse" gradientTransform="translate(87.8599 54.3413) scale(18.8776 18.3842)">
<stop/>
<stop offset="0.229" stop-color="#010303"/>
<stop offset="0.3654" stop-color="#050B0B"/>
<stop offset="0.4774" stop-color="#0B1919"/>
<stop offset="0.5764" stop-color="#132D2D"/>
<stop offset="0.6667" stop-color="#1F4848"/>
<stop offset="0.7506" stop-color="#2C6868"/>
<stop offset="0.8298" stop-color="#3D8E8E"/>
<stop offset="0.905" stop-color="#50BABA"/>
<stop offset="0.9747" stop-color="#65EBEB"/>
<stop offset="1" stop-color="#6DFFFF"/>
</radialGradient>
<linearGradient id="paint56_linear" x1="71.1221" y1="45.0758" x2="104.61" y2="45.0758" gradientUnits="userSpaceOnUse">
<stop stop-color="#6A9BFF"/>
<stop offset="1"/>
</linearGradient>
<clipPath id="clip0">
<rect width="137" height="158" fill="white"/>
</clipPath>
</defs>
</svg>
