<svg width="16" height="16" viewBox="0 0 16 16" fill="none" xmlns="http://www.w3.org/2000/svg">
<path fill-rule="evenodd" clip-rule="evenodd" d="M7.99978 15.1114C11.9271 15.1114 15.1109 11.9276 15.1109 8.00027C15.1109 4.07291 11.9271 0.889162 7.99978 0.889162C4.07242 0.889162 0.888672 4.07291 0.888672 8.00027C0.888672 11.9276 4.07242 15.1114 7.99978 15.1114ZM0.177856 8.00095C0.177856 3.68024 3.67998 0.177612 8.00008 0.177612C12.3202 0.177612 15.8223 3.68024 15.8223 8.00095C15.8223 12.3217 12.3202 15.8243 8.00008 15.8243C3.67998 15.8243 0.177856 12.3217 0.177856 8.00095ZM7.99983 12.4802C8.43184 12.4802 8.78205 12.13 8.78205 11.6979C8.78205 11.2659 8.43184 10.9157 7.99983 10.9157C7.56782 10.9157 7.21761 11.2659 7.21761 11.6979C7.21761 12.13 7.56782 12.4802 7.99983 12.4802Z" fill="#FF0000"/>
<path d="M7.28882 3.0224H8.71104V6.57796L8.35549 9.4224H7.64437L7.28882 6.57796V3.0224Z" fill="#FF0000"/>
</svg>
