<svg width="29" height="28" viewBox="0 0 29 28" fill="none" xmlns="http://www.w3.org/2000/svg">
<path d="M25.9996 5.35818C26.0052 5.0476 25.947 4.73918 25.8286 4.45198C25.7103 4.16477 25.5344 3.90486 25.3117 3.68831C25.0951 3.46561 24.8352 3.28967 24.548 3.17135C24.2607 3.05303 23.9523 2.99483 23.6417 3.00036H6.35828C6.04769 2.99483 5.73926 3.05303 5.45204 3.17135C5.16482 3.28967 4.9049 3.46561 4.68834 3.68831C4.46563 3.90486 4.28969 4.16477 4.17136 4.45198C4.05303 4.73918 3.99483 5.0476 4.00036 5.35818V22.6418C3.99483 22.9524 4.05303 23.2608 4.17136 23.548C4.28969 23.8352 4.46563 24.0951 4.68834 24.3117C4.9049 24.5344 5.16482 24.7103 5.45204 24.8286C5.73926 24.947 6.04769 25.0052 6.35828 24.9996H16.032V16.3123H13.0321V12.9686H16.032V10.5128C15.9972 9.92662 16.0815 9.33949 16.2798 8.7868C16.4781 8.23412 16.7864 7.72734 17.1859 7.29702C17.6002 6.9033 18.0903 6.59797 18.6263 6.3996C19.1623 6.20123 19.733 6.11396 20.3038 6.14311C21.1575 6.13316 22.0108 6.18227 22.8577 6.2901V9.23587H21.0898C20.8501 9.21136 20.6079 9.23809 20.3793 9.31429C20.1507 9.39048 19.9409 9.5144 19.7638 9.67784C19.5427 10.0295 19.4394 10.4424 19.4689 10.8567V12.9686H22.8577L22.4158 16.3123H19.4689V24.9986H23.6427C23.9526 25 24.2597 24.9399 24.5462 24.8219C24.8328 24.704 25.0931 24.5304 25.3123 24.3113C25.5314 24.0922 25.7049 23.8318 25.8229 23.5453C25.9409 23.2588 26.001 22.9517 25.9996 22.6418V5.35818Z" fill="#61616A"/>
</svg>
