<svg width="20" height="21" viewBox="0 0 20 21" fill="none" xmlns="http://www.w3.org/2000/svg">
<g clip-path="url(#clip0)">
<path d="M8.33348 15.4477C8.33267 14.4206 8.58522 13.4091 9.06874 12.5029C9.55227 11.5967 10.2518 10.8238 11.1055 10.2526C11.9591 9.68137 12.9405 9.32953 13.9626 9.22823C14.9847 9.12693 16.016 9.2793 16.9651 9.67184L18.9951 7.69267C19.0877 7.60237 19.1532 7.48796 19.1842 7.36239C19.2152 7.23681 19.2105 7.10506 19.1705 6.98205C19.1305 6.85903 19.057 6.74965 18.9581 6.66626C18.8592 6.58287 18.739 6.5288 18.611 6.51017L12.8168 5.6685L10.2243 0.417672C10.1673 0.301439 10.0788 0.203527 9.96889 0.135049C9.859 0.0665723 9.73212 0.0302734 9.60264 0.0302734C9.47317 0.0302734 9.34628 0.0665723 9.23639 0.135049C9.12651 0.203527 9.03802 0.301439 8.98098 0.417672L6.38931 5.66767L0.594309 6.51017C0.466313 6.5288 0.346081 6.58287 0.247203 6.66626C0.148325 6.74965 0.0747456 6.85903 0.0347803 6.98205C-0.00518487 7.10506 -0.00994168 7.23681 0.0210476 7.36239C0.0520369 7.48796 0.117536 7.60237 0.210143 7.69267L4.40348 11.776L3.41681 17.5518C3.39643 17.6783 3.41146 17.808 3.46023 17.9265C3.50901 18.045 3.58962 18.1477 3.69315 18.2231C3.79669 18.2986 3.91909 18.344 4.04682 18.3542C4.17454 18.3644 4.3026 18.3391 4.41681 18.281L8.38098 16.1977C8.35002 15.9489 8.33415 15.6984 8.33348 15.4477Z" fill="white"/>
<path d="M14.5833 10.8645C13.6768 10.8645 12.7907 11.1333 12.037 11.6369C11.2832 12.1406 10.6958 12.8564 10.3489 13.6939C10.002 14.5314 9.91122 15.4529 10.0881 16.342C10.2649 17.2311 10.7014 18.0477 11.3424 18.6887C11.9834 19.3297 12.8001 19.7662 13.6892 19.9431C14.5783 20.1199 15.4998 20.0292 16.3373 19.6823C17.1748 19.3354 17.8906 18.7479 18.3942 17.9942C18.8979 17.2405 19.1667 16.3543 19.1667 15.4478C19.1667 14.2323 18.6838 13.0665 17.8242 12.2069C16.9647 11.3474 15.7989 10.8645 14.5833 10.8645Z" fill="white"/>
<path fill-rule="evenodd" clip-rule="evenodd" d="M15 13.3645H14.1667V15.0312L12.5 15.0312V15.8645H14.1667V17.5312H15V15.8645H16.6667V15.0312L15 15.0312V13.3645Z" fill="#FF753A"/>
</g>
<defs>
<clipPath id="clip0">
<rect y="0.03125" width="20" height="20" fill="white"/>
</clipPath>
</defs>
</svg>
