<svg width="29" height="28" viewBox="0 0 29 28" fill="none" xmlns="http://www.w3.org/2000/svg">
<path d="M12.1121 19.826L12.1121 19.8269C12.1126 20.0042 12.1196 20.1813 12.133 20.358L8.1006 22.4729C8.05844 22.4938 8.01129 22.5029 7.96422 22.4992L7.92445 22.9976L7.96421 22.4992C7.91634 22.4954 7.87055 22.4784 7.8319 22.4503L7.5377 22.8546L7.8319 22.4503C7.79326 22.4221 7.7633 22.384 7.74521 22.3401C7.72734 22.2968 7.7217 22.2495 7.72884 22.2033C7.72893 22.2028 7.72902 22.2022 7.72911 22.2016L8.8073 15.9029L8.85172 15.6434L8.66293 15.46L4.07757 11.0039C4.04316 10.9704 4.01892 10.9281 4.00746 10.8818C3.99601 10.8355 3.99777 10.7869 4.01254 10.7415C4.02732 10.6961 4.05457 10.6556 4.09136 10.6246C4.12815 10.5937 4.173 10.5735 4.22086 10.5666L10.5579 9.64712L10.8178 9.60941L10.9342 9.37399L13.7683 3.64447L13.7689 3.64343C13.7899 3.60058 13.8227 3.56434 13.8635 3.53894C13.9044 3.51352 13.9517 3.5 14 3.5C14.0483 3.5 14.0956 3.51352 14.1365 3.53893C14.1773 3.56434 14.2101 3.60058 14.2311 3.64343L14.2317 3.6445L17.0667 9.37492L17.1832 9.61035L17.4431 9.64804L23.7791 10.5666C23.827 10.5735 23.8718 10.5937 23.9086 10.6246L24.2306 10.2421L23.9086 10.6246C23.9454 10.6556 23.9727 10.6961 23.9875 10.7415C24.0022 10.7869 24.004 10.8355 23.9925 10.8818C23.9811 10.9281 23.9568 10.9704 23.9224 11.0039L21.9323 12.9403C20.9056 12.57 19.8076 12.4328 18.7186 12.5405C17.5192 12.6591 16.3676 13.0712 15.3657 13.7402C14.3639 14.4092 13.5428 15.3145 12.9752 16.3761C12.4076 17.4377 12.1112 18.6226 12.1121 19.826Z" fill="#FF753A" fill-opacity="0.5" stroke="#FF753A"/>
<path d="M19.4991 15.0009C18.5102 15.0009 17.5435 15.2941 16.7213 15.8435C15.899 16.3929 15.2582 17.1738 14.8798 18.0875C14.5013 19.0011 14.4023 20.0064 14.5952 20.9763C14.7881 21.9462 15.2644 22.8372 15.9636 23.5364C16.6629 24.2357 17.5538 24.7119 18.5237 24.9048C19.4936 25.0977 20.4989 24.9987 21.4126 24.6203C22.3262 24.2418 23.1071 23.601 23.6565 22.7787C24.2059 21.9565 24.4991 20.9898 24.4991 20.0009C24.4991 18.6748 23.9724 17.403 23.0347 16.4654C22.097 15.5277 20.8252 15.0009 19.4991 15.0009Z" fill="#FF753A" fill-opacity="0.5" stroke="#FF753A"/>
<path fill-rule="evenodd" clip-rule="evenodd" d="M20 17H18.8333V19.3333H16.5V20.5H18.8333V22.8333H20V20.5H22.3333V19.3333H20V17Z" fill="white"/>
</svg>
