<svg width="29" height="28" viewBox="0 0 29 28" fill="none" xmlns="http://www.w3.org/2000/svg">
<path d="M12.6121 19.8256C12.6112 18.7046 12.8874 17.6008 13.4162 16.6118C13.9449 15.6229 14.7099 14.7794 15.6434 14.156C16.5769 13.5326 17.6501 13.1486 18.7678 13.0381C19.8855 12.9275 21.0133 13.0938 22.0512 13.5222L24.2711 11.3623C24.3724 11.2637 24.444 11.1389 24.4779 11.0018C24.5118 10.8648 24.5066 10.721 24.4629 10.5867C24.4192 10.4525 24.3387 10.3331 24.2306 10.2421C24.1225 10.1511 23.991 10.0921 23.851 10.0718L17.5148 9.15321L14.6798 3.42278C14.6174 3.29593 14.5207 3.18908 14.4005 3.11435C14.2803 3.03961 14.1416 3 14 3C13.8584 3 13.7197 3.03961 13.5995 3.11435C13.4793 3.18908 13.3826 3.29593 13.3202 3.42278L10.4861 9.1523L4.14897 10.0718C4.009 10.0921 3.87752 10.1511 3.76939 10.2421C3.66127 10.3331 3.5808 10.4525 3.5371 10.5867C3.4934 10.721 3.48819 10.8648 3.52208 11.0018C3.55597 11.1389 3.6276 11.2637 3.72887 11.3623L8.31447 15.8185L7.2355 22.1219C7.21322 22.26 7.22965 22.4015 7.28299 22.5308C7.33633 22.6601 7.42448 22.7722 7.5377 22.8546C7.65092 22.9369 7.78477 22.9864 7.92445 22.9976C8.06412 23.0087 8.20416 22.9811 8.32905 22.9177L12.6641 20.6441C12.6302 20.3725 12.6128 20.0992 12.6121 19.8256Z" fill="#8E8E93"/>
<path d="M19.499 15.0009C18.5101 15.0009 17.5434 15.2941 16.7212 15.8435C15.8989 16.3929 15.2581 17.1738 14.8796 18.0875C14.5012 19.0011 14.4022 20.0064 14.5951 20.9763C14.788 21.9462 15.2642 22.8372 15.9635 23.5364C16.6628 24.2357 17.5537 24.7119 18.5236 24.9048C19.4935 25.0977 20.4988 24.9987 21.4124 24.6203C22.3261 24.2418 23.107 23.601 23.6564 22.7787C24.2058 21.9565 24.499 20.9898 24.499 20.0009C24.499 18.6748 23.9722 17.403 23.0346 16.4654C22.0969 15.5277 20.8251 15.0009 19.499 15.0009Z" fill="#8E8E93"/>
<path fill-rule="evenodd" clip-rule="evenodd" d="M20 17H18.8333V19.3333H16.5V20.5H18.8333V22.8333H20V20.5H22.3333V19.3333H20V17Z" fill="white"/>
</svg>
