<svg width="20" height="20" viewBox="0 0 20 20" fill="none" xmlns="http://www.w3.org/2000/svg">
<rect y="1" width="20" height="18" rx="3" fill="#FF753A"/>
<path fill-rule="evenodd" clip-rule="evenodd" d="M3.24803 13.2175C3.33469 10.1428 4.24465 6.94129 7.0719 5.71943C9.57782 4.63808 12.7557 5.91981 13.6172 8.56448C14.4141 11.0099 12.8997 13.7951 10.5435 14.0058C8.40505 14.1964 7.19289 12.8582 7.24241 11.0917C7.28518 10.0829 8.10567 9.05333 9.34259 9.06715C7.3544 9.91473 7.36284 13.4312 10.4326 13.2498C11.8958 13.1623 13.3465 11.4815 12.8254 9.49555C12.2666 7.36162 10.1355 6.21347 8.32064 6.74091C5.74775 7.49463 4.43768 10.4577 5.55417 13.0747C6.74494 15.8633 10.3899 17.0322 13.4934 14.9075C15.7084 13.392 16.6786 9.99535 15.485 6.97353C15.4565 7.43417 15.4276 7.89482 15.3983 8.35546C13.8496 4.94671 11.3178 3.34828 8.03589 4.24653C4.59187 5.18682 2.20188 9.00554 3.24803 13.2175Z" fill="white"/>
</svg>
