<svg width="148" height="70" viewBox="0 0 148 70" fill="none" xmlns="http://www.w3.org/2000/svg">
<rect x="0.5" y="0.5" width="147" height="69" rx="4.5" fill="white" stroke="#D1D1D6"/>
<path d="M0 5C0 2.23857 2.23858 0 5 0H143C145.761 0 148 2.23858 148 5V22.3188H0V5Z" fill="#424143"/>
<path d="M58.0005 43.069V51.8821L58.014 53.1642C58.014 53.9335 58.0544 54.4869 58.1486 54.8378C58.2428 55.1887 58.4178 55.4856 58.6735 55.7285C58.9831 56.0255 59.5619 56.2684 60.4099 56.4168V56.7677H52.9664V56.4168C53.6395 56.3224 54.124 56.2009 54.4201 56.0389C54.7163 55.877 54.9451 55.5936 55.1335 55.2022C55.2547 54.9457 55.3489 54.5544 55.3893 54.028C55.4431 53.5016 55.47 52.7458 55.47 51.7606V43.069H53.0337V42.4347H55.47V38.3048C55.47 37.3196 55.5912 36.5368 55.8469 35.9564C56.1026 35.3761 56.5603 34.8497 57.2064 34.3639C57.7986 33.932 58.512 33.6081 59.36 33.3651C60.208 33.1222 61.0963 33.0007 62.0385 33.0007C62.9134 33.0007 63.6134 33.1492 64.1383 33.4596C64.6633 33.77 64.9325 34.1749 64.9325 34.6743C64.9325 35.0117 64.8248 35.2951 64.6094 35.5245C64.3941 35.754 64.1249 35.862 63.8153 35.862C63.5057 35.862 63.25 35.781 63.0211 35.619C62.7923 35.4571 62.577 35.1871 62.3481 34.8227C62.0385 34.3099 61.7693 33.959 61.5674 33.797C61.3655 33.6351 61.0963 33.5541 60.7464 33.5541C60.3157 33.5541 59.9118 33.6351 59.535 33.8105C59.1581 33.986 58.862 34.2154 58.6466 34.4988C58.4043 34.8092 58.2428 35.2276 58.162 35.7405C58.0678 36.2533 58.0274 36.9956 58.0274 37.9539V42.4212H61.3386V43.0555H58.0005V43.069Z" fill="#EE4623" stroke="#EE4623" stroke-miterlimit="10"/>
<path d="M73.5603 57.0781C73.4122 56.3898 73.3449 55.688 73.3449 54.9727C71.9451 56.3763 70.276 57.0781 68.3647 57.0781C66.9649 57.0781 65.8342 56.7407 64.9862 56.0524C64.1517 55.3775 63.7344 54.4193 63.7344 53.1911V47.3202L63.721 46.0381C63.721 45.2688 63.6806 44.7154 63.5864 44.3645C63.4922 44.0136 63.3306 43.7167 63.0749 43.4738C62.7519 43.1769 62.2135 43.0689 61.3251 43.0689V42.4346H66.2784V50.9912C66.2784 52.1924 66.3188 53.0832 66.3995 53.6635C66.4803 54.2438 66.6418 54.7162 66.8572 55.0941C67.0995 55.472 67.4494 55.7824 67.9205 55.9984C68.3782 56.2143 68.8897 56.3223 69.4684 56.3223C70.1011 56.3223 70.6798 56.2008 71.2317 55.9579C71.7836 55.7149 72.2143 55.3775 72.5239 54.9457C72.8469 54.5138 73.0623 54.0009 73.17 53.4341C73.2776 52.8672 73.3315 51.9225 73.3315 50.5998V47.2932L73.318 46.0516C73.318 45.2823 73.2776 44.7289 73.1969 44.378C73.1161 44.0271 72.9411 43.7302 72.6854 43.4873C72.3758 43.1904 71.7836 42.9609 70.9356 42.8125V42.4346H75.8889V51.5851C75.8889 52.7458 75.9158 53.5555 75.9831 54.0144C76.0504 54.4868 76.1716 54.8647 76.3465 55.1481C76.4408 55.2966 76.683 55.6475 77.033 55.9039C77.4368 56.2008 77.8675 56.3763 78.204 56.4033V56.7542L73.5603 57.0781Z" fill="#EE4623" stroke="#EE4623" stroke-miterlimit="10"/>
<path d="M82.9823 42.1782C83.1439 42.8395 83.2246 43.4469 83.2246 44.0137V44.2836C84.611 42.88 86.2666 42.1782 88.1914 42.1782C89.6316 42.1782 90.7892 42.5156 91.6641 43.1904C92.5255 43.8518 92.9562 44.7965 92.9562 46.0247V53.1777C92.9562 53.947 92.9966 54.5004 93.0908 54.8513C93.1851 55.2022 93.36 55.4991 93.6158 55.742C93.9254 56.0389 94.5042 56.2819 95.3521 56.4303V56.7812H87.9087V56.4303C88.5817 56.3359 89.0663 56.2144 89.3624 56.0524C89.6585 55.8905 89.8873 55.6071 90.0758 55.2157C90.1969 54.9592 90.2911 54.5678 90.3315 54.0415C90.3854 53.5151 90.4123 52.7728 90.4123 51.7876V48.2111C90.4123 46.9829 90.3719 46.0922 90.2911 45.5118C90.2104 44.945 90.0489 44.4726 89.8066 44.1352C89.5508 43.7438 89.174 43.4334 88.7029 43.2174C88.2183 43.0015 87.6934 42.8935 87.1146 42.8935C86.482 42.8935 85.9032 43.015 85.3648 43.2579C84.8264 43.5009 84.3956 43.8383 84.0861 44.2702C83.7496 44.7155 83.5342 45.2284 83.4265 45.7952C83.3188 46.3621 83.265 47.3068 83.265 48.616V51.9226L83.2785 53.1642C83.2785 53.9335 83.3188 54.4869 83.4131 54.8378C83.5073 55.1887 83.6823 55.4856 83.938 55.7285C84.2476 56.0254 84.8264 56.2684 85.6743 56.4168V56.7677H78.2309V56.4168C78.9039 56.3224 79.3885 56.2009 79.6846 56.0389C79.9807 55.877 80.2096 55.5936 80.398 55.2022C80.5191 54.9457 80.6134 54.5543 80.6537 54.0415C80.7076 53.5151 80.7345 52.7728 80.7345 51.7876V47.6442C80.7345 46.497 80.7076 45.6873 80.6537 45.2149C80.5999 44.756 80.4788 44.3781 80.2903 44.0812C80.1019 43.7708 79.8731 43.5414 79.6039 43.4064C79.3347 43.2714 78.9443 43.1769 78.4463 43.15V42.7991L82.9823 42.1782Z" fill="#EE4623" stroke="#EE4623" stroke-miterlimit="10"/>
<path d="M99.6999 42.4346H103.98V43.069H99.6999V52.8943C99.6999 54.082 99.9018 54.9187 100.306 55.4316C100.521 55.715 100.804 55.931 101.14 56.0929C101.49 56.2549 101.867 56.3224 102.257 56.3224C102.755 56.3224 103.186 56.2144 103.523 56.0119C103.859 55.8095 104.222 55.4181 104.626 54.8782L104.882 55.0942C104.505 55.769 103.994 56.2684 103.321 56.5923C102.648 56.9162 101.813 57.0781 100.817 57.0781C99.498 57.0781 98.5289 56.8217 97.9232 56.2954C97.6001 56.0254 97.3847 55.7015 97.2771 55.3236C97.1828 54.9457 97.129 54.2709 97.129 53.2857V43.069H95.3253V42.799C96.0522 42.5561 96.7252 42.1107 97.3444 41.4359C97.7213 41.0175 98.0174 40.6126 98.2462 40.1943C98.475 39.7894 98.6904 39.2495 98.8923 38.6017L99.0673 38.0483H99.6999V42.4346Z" fill="#424143"/>
<path d="M119.015 53.8796V54.7299C118.53 56.2819 117.359 57.0782 115.812 57.0782C115.017 57.0782 114.344 56.8758 113.819 56.4844C113.469 56.228 113.106 55.7691 112.743 55.1348C111.989 55.8096 111.424 56.255 111.047 56.4709C110.32 56.8758 109.472 57.0782 108.503 57.0782C107.264 57.0782 106.282 56.7813 105.555 56.1875C104.828 55.5936 104.465 54.7839 104.465 53.7716C104.465 52.8404 104.761 52.0576 105.353 51.4233C105.69 51.0724 106.08 50.8024 106.511 50.5865C106.955 50.3841 107.587 50.1681 108.408 49.9522C109.391 49.7092 110.104 49.4933 110.576 49.3313C111.047 49.1694 111.437 48.9534 111.747 48.724C112.11 48.4676 112.352 48.1572 112.487 47.8063C112.621 47.4554 112.689 46.9695 112.689 46.3487C112.689 45.026 112.446 44.0678 111.948 43.4604C111.72 43.177 111.437 42.9611 111.087 42.7856C110.737 42.6102 110.36 42.5292 109.983 42.5292C109.526 42.5292 109.108 42.6507 108.758 42.8801C108.395 43.123 108.126 43.4469 107.951 43.8653L107.534 44.8506C107.305 45.3769 106.901 45.6468 106.322 45.6468C105.945 45.6468 105.622 45.5254 105.366 45.2689C105.111 45.0125 104.976 44.7021 104.976 44.3107C104.976 43.7304 105.38 43.258 106.188 42.8531C106.632 42.6507 107.17 42.4887 107.816 42.3537C108.462 42.2188 109.095 42.1648 109.714 42.1648C110.414 42.1648 111.141 42.2593 111.895 42.4347C112.648 42.6102 113.281 42.8396 113.779 43.123C114.506 43.5414 114.964 44.0813 115.138 44.7426C115.233 45.08 115.273 45.6468 115.273 46.4431V52.6919C115.273 53.7446 115.313 54.4734 115.408 54.8513C115.596 55.6476 116.054 56.0525 116.794 56.0525C117.144 56.0525 117.413 55.985 117.615 55.8636C117.669 55.8231 118.127 55.5262 118.477 55.0538C118.746 54.6759 118.921 54.1225 119.015 53.8796ZM112.743 48.4811C112.137 48.9939 111.477 49.4258 110.751 49.8172C109.929 50.2491 109.364 50.5865 109.055 50.8159C108.745 51.0454 108.462 51.3153 108.193 51.6257C107.668 52.2735 107.399 53.0428 107.399 53.9066C107.399 54.6489 107.601 55.2562 108.018 55.7421C108.422 56.228 108.947 56.4709 109.566 56.4709C110.118 56.4709 110.629 56.2954 111.114 55.958C111.598 55.6206 111.962 55.1618 112.218 54.5814C112.568 53.8256 112.743 52.7324 112.743 51.3018V48.4811V48.4811Z" fill="#424143"/>
<path d="M121.559 55.3504L121.572 58.4546V59.6153C121.572 60.3846 121.613 60.9379 121.707 61.2888C121.801 61.6397 121.976 61.9366 122.232 62.1931C122.542 62.49 123.12 62.7194 123.968 62.8679V63.2188H116.525V62.8679C117.198 62.7734 117.682 62.6519 117.979 62.5035C118.275 62.3415 118.504 62.0716 118.692 61.6802C118.813 61.4238 118.907 61.0324 118.948 60.506C119.002 59.9797 119.028 59.2239 119.028 58.2521V46.6048C119.028 45.3362 118.827 44.4319 118.436 43.8921C118.032 43.3522 117.373 43.0823 116.431 43.0823V42.6639L121.344 41.9756C121.465 42.5154 121.532 43.0148 121.532 43.4602V43.7841C122.367 43.2172 123.134 42.8259 123.874 42.5829C124.601 42.34 125.395 42.2185 126.243 42.2185C127.939 42.2185 129.406 42.7314 130.618 43.7571C131.385 44.4049 131.964 45.2282 132.381 46.1999C132.798 47.1852 133 48.2649 133 49.439C133 50.6672 132.785 51.8009 132.341 52.8671C131.896 53.9198 131.264 54.7971 130.456 55.4854C129.177 56.5786 127.656 57.1185 125.907 57.1185C125.072 57.1185 124.345 56.997 123.726 56.7406C123.08 56.4571 122.367 56.0118 121.559 55.3504ZM121.559 49.7495C121.559 51.3015 121.626 52.4757 121.761 53.2585C121.895 54.0413 122.138 54.6756 122.488 55.1615C122.797 55.5934 123.215 55.9308 123.713 56.1872C124.224 56.4436 124.736 56.5786 125.261 56.5786C126.445 56.5786 127.481 56.0118 128.356 54.8916C128.895 54.2167 129.312 53.4205 129.595 52.4892C129.891 51.5715 130.025 50.5997 130.025 49.601C130.025 48.6293 129.891 47.6845 129.608 46.7533C129.339 45.822 128.949 45.0258 128.464 44.3644C127.629 43.2172 126.607 42.6369 125.395 42.6369C124.803 42.6369 124.238 42.7854 123.713 43.0823C123.188 43.3792 122.77 43.7706 122.461 44.2835C122.111 44.8233 121.869 45.4981 121.734 46.2944C121.626 47.1177 121.559 48.2649 121.559 49.7495Z" fill="#424143"/>
<path fill-rule="evenodd" clip-rule="evenodd" d="M13.6872 54.0209C13.9287 45.6776 16.4481 36.9709 24.2823 33.6647C31.2191 30.7221 40.0196 34.2013 42.4182 41.3848C44.6269 48.0317 40.4338 55.5961 33.911 56.1673C27.9923 56.6866 24.6274 53.0516 24.7654 48.2568C24.8862 45.5218 27.164 42.7177 30.5807 42.7523C25.0588 45.0545 25.076 54.6094 33.5832 54.1074C37.6383 53.8651 41.6589 49.3127 40.2094 43.912C38.6564 38.1133 32.7549 34.9975 27.7334 36.4343C20.6068 38.4768 16.983 46.5258 20.0718 53.6228C23.3677 61.1871 33.4624 64.3721 42.0558 58.608C48.1989 54.4883 50.8736 45.2622 47.5777 37.0574C47.4914 38.3037 47.4224 39.5673 47.3361 40.8136C43.0567 31.5702 36.0335 27.2255 26.9397 29.6662C17.4144 32.2107 10.7882 42.5792 13.6872 54.0209Z" fill="#EE4623"/>
<path d="M13.4443 13.5435C13.5522 15.124 14.8853 16.1523 16.8848 16.1523C18.9351 16.1523 20.2681 15.0923 20.2681 13.3975C20.2681 12.1025 19.5127 11.3408 17.6021 10.9219L16.5864 10.6997C15.3359 10.4268 14.8472 9.93164 14.8472 9.20801C14.8472 8.2749 15.7295 7.71631 16.8721 7.71631C18.0654 7.71631 18.8589 8.33203 18.9604 9.33496H20.103C20.0522 7.77979 18.7319 6.68799 16.9038 6.68799C15.0059 6.68799 13.6729 7.74805 13.6729 9.25879C13.6729 10.5601 14.4663 11.3916 16.3008 11.7915L17.3164 12.0137C18.5859 12.293 19.0938 12.8008 19.0938 13.5688C19.0938 14.4702 18.1924 15.124 16.9482 15.124C15.6343 15.124 14.7202 14.5273 14.5869 13.5435H13.4443ZM22.967 7.17676C23.2463 7.05615 23.3923 7.02441 23.6145 7.02441C23.9319 7.02441 24.1794 7.24023 24.1794 7.50684C24.1794 7.83057 23.9954 8.04004 23.5954 8.17334L23.9827 8.70654C24.6047 8.48438 25.011 7.99561 25.011 7.4624C25.011 6.78955 24.5413 6.35156 23.8176 6.35156C23.4748 6.35156 23.24 6.396 22.967 6.51025V7.17676ZM23.1257 16.1143C24.0144 16.1143 24.8523 15.6191 25.2458 14.8638H25.2712V16H26.3186V11.436C26.3186 10.1221 25.3411 9.28418 23.7922 9.28418C22.2307 9.28418 21.2532 10.1602 21.177 11.3027H22.2434C22.383 10.6553 22.9163 10.2554 23.7668 10.2554C24.6809 10.2554 25.2141 10.7378 25.2141 11.5439V12.0962L23.3225 12.2041C21.7991 12.293 20.9294 13.0039 20.9294 14.1338C20.9294 15.3208 21.8118 16.1143 23.1257 16.1143ZM23.3733 15.1748C22.5798 15.1748 22.053 14.7622 22.053 14.1338C22.053 13.5117 22.5608 13.1182 23.4495 13.061L25.2141 12.9531V13.4927C25.2141 14.4448 24.4143 15.1748 23.3733 15.1748ZM27.4814 16H28.5859V12.1152C28.5859 10.998 29.2651 10.2617 30.3061 10.2617C31.3218 10.2617 31.8232 10.8457 31.8232 11.9121V16H32.9277V11.7153C32.9277 10.2173 32.0898 9.28418 30.6426 9.28418C29.6206 9.28418 28.916 9.74121 28.5478 10.4521H28.5224V9.39844H27.4814V16ZM39.7285 9.28418C38.77 9.28418 38.0019 9.77295 37.5957 10.5156H37.5703V9.39844H36.5229V18.2026H37.6274V14.9272H37.6528C38.0463 15.6509 38.8081 16.1143 39.7539 16.1143C41.417 16.1143 42.5532 14.7686 42.5532 12.6992C42.5532 10.6299 41.4106 9.28418 39.7285 9.28418ZM39.5127 15.1431C38.3828 15.1431 37.6211 14.1719 37.6211 12.6992C37.6211 11.2329 38.3828 10.2554 39.5127 10.2554C40.687 10.2554 41.4233 11.2075 41.4233 12.6992C41.4233 14.1973 40.687 15.1431 39.5127 15.1431ZM43.4875 16H44.592V12.1533C44.592 11.0107 45.2712 10.2617 46.3693 10.2617C47.404 10.2617 47.9309 10.8901 47.9309 11.9375V16H49.0354V11.7344C49.0354 10.2617 48.1594 9.28418 46.7121 9.28418C45.7092 9.28418 44.9855 9.71582 44.6174 10.4521H44.592V6.84033H43.4875V16ZM53.2705 5.40576C53.4799 5.32324 53.6767 5.28516 53.8989 5.28516C54.2036 5.28516 54.4384 5.47559 54.4384 5.72949C54.4384 6.00244 54.2289 6.24365 53.8798 6.37061L54.3178 6.81494C54.8701 6.63721 55.1874 6.22461 55.1874 5.67871C55.1874 5.05029 54.7114 4.64404 53.9687 4.64404C53.7211 4.64404 53.4164 4.70752 53.2705 4.79004V5.40576ZM53.1498 6.66895H52.2866L50.56 8.44629H51.601L52.6992 7.31641H52.7372L53.8354 8.44629H54.8764L53.1498 6.66895ZM52.1279 16.1143C53.0165 16.1143 53.8544 15.6191 54.248 14.8638H54.2734V16H55.3207V11.436C55.3207 10.1221 54.3432 9.28418 52.7944 9.28418C51.2329 9.28418 50.2553 10.1602 50.1791 11.3027H51.2455C51.3852 10.6553 51.9184 10.2554 52.769 10.2554C53.683 10.2554 54.2163 10.7378 54.2163 11.5439V12.0962L52.3246 12.2041C50.8012 12.293 49.9316 13.0039 49.9316 14.1338C49.9316 15.3208 50.8139 16.1143 52.1279 16.1143ZM52.3754 15.1748C51.582 15.1748 51.0551 14.7622 51.0551 14.1338C51.0551 13.5117 51.5629 13.1182 52.4516 13.061L54.2163 12.9531V13.4927C54.2163 14.4448 53.4164 15.1748 52.3754 15.1748ZM56.4836 16H57.5881V11.8613C57.5881 10.9473 58.2228 10.2617 59.0988 10.2617C59.9177 10.2617 60.4509 10.7822 60.4509 11.5757V16H61.5554V11.8042C61.5554 10.9092 62.1711 10.2617 63.0471 10.2617C63.9167 10.2617 64.4181 10.7949 64.4181 11.6963V16H65.5226V11.4424C65.5226 10.1348 64.6784 9.28418 63.3708 9.28418C62.444 9.28418 61.6696 9.75391 61.3014 10.541H61.2761C60.9904 9.74121 60.3239 9.28418 59.4225 9.28418C58.5339 9.28418 57.861 9.75391 57.55 10.4521H57.5246V9.39844H56.4836V16ZM74.5324 9.39844H73.3835L71.5553 14.8257H71.5299L69.7082 9.39844H68.5465L70.9777 16H72.1076L74.5324 9.39844ZM77.9804 6.54199H77.1298L75.5492 8.44629H76.5521L77.536 7.24658H77.5741L78.558 8.44629H79.5609L77.9804 6.54199ZM76.9647 16.1143C77.8534 16.1143 78.6913 15.6191 79.0849 14.8638H79.1103V16H80.1576V11.436C80.1576 10.1221 79.1801 9.28418 77.6312 9.28418C76.0697 9.28418 75.0922 10.1602 75.016 11.3027H76.0824C76.2221 10.6553 76.7553 10.2554 77.6059 10.2554C78.5199 10.2554 79.0531 10.7378 79.0531 11.5439V12.0962L77.1615 12.2041C75.6381 12.293 74.7685 13.0039 74.7685 14.1338C74.7685 15.3208 75.6508 16.1143 76.9647 16.1143ZM77.2123 15.1748C76.4188 15.1748 75.892 14.7622 75.892 14.1338C75.892 13.5117 76.3998 13.1182 77.2885 13.061L79.0531 12.9531V13.4927C79.0531 14.4448 78.2533 15.1748 77.2123 15.1748ZM77.4662 18.2598C77.8534 18.2598 78.1581 17.9487 78.1581 17.5679C78.1581 17.1807 77.8534 16.876 77.4662 16.876C77.0854 16.876 76.7743 17.1807 76.7743 17.5679C76.7743 17.9487 77.0854 18.2598 77.4662 18.2598ZM81.3204 16H82.4249V12.1152C82.4249 10.998 83.1041 10.2617 84.1452 10.2617C85.1608 10.2617 85.6622 10.8457 85.6622 11.9121V16H86.7667V11.7153C86.7667 10.2173 85.9288 9.28418 84.4816 9.28418C83.4596 9.28418 82.755 9.74121 82.3869 10.4521H82.3615V9.39844H81.3204V16ZM90.4191 16H91.5236V12.1533C91.5236 11.0107 92.2028 10.2617 93.3009 10.2617C94.3356 10.2617 94.8624 10.8901 94.8624 11.9375V16H95.9669V11.7344C95.9669 10.2617 95.0909 9.28418 93.6437 9.28418C92.6407 9.28418 91.9171 9.71582 91.5489 10.4521H91.5236V6.84033H90.4191V16ZM99.2118 8.44629H100.069L98.9388 6.54199H97.7264L99.2118 8.44629ZM99.0594 16.1143C99.9481 16.1143 100.786 15.6191 101.18 14.8638H101.205V16H102.252V11.436C102.252 10.1221 101.275 9.28418 99.7259 9.28418C98.1644 9.28418 97.1869 10.1602 97.1107 11.3027H98.1771C98.3168 10.6553 98.85 10.2554 99.7005 10.2554C100.615 10.2554 101.148 10.7378 101.148 11.5439V12.0962L99.2562 12.2041C97.7328 12.293 96.8631 13.0039 96.8631 14.1338C96.8631 15.3208 97.7455 16.1143 99.0594 16.1143ZM99.307 15.1748C98.5135 15.1748 97.9867 14.7622 97.9867 14.1338C97.9867 13.5117 98.4945 13.1182 99.3832 13.061L101.148 12.9531V13.4927C101.148 14.4448 100.348 15.1748 99.307 15.1748ZM103.415 16H104.52V12.1152C104.52 10.998 105.199 10.2617 106.24 10.2617C107.255 10.2617 107.757 10.8457 107.757 11.9121V16H108.861V11.7153C108.861 10.2173 108.024 9.28418 106.576 9.28418C105.554 9.28418 104.85 9.74121 104.482 10.4521H104.456V9.39844H103.415V16ZM110.088 16H111.192V12.1533C111.192 11.0107 111.871 10.2617 112.97 10.2617C114.004 10.2617 114.531 10.8901 114.531 11.9375V16H115.636V11.7344C115.636 10.2617 114.76 9.28418 113.312 9.28418C112.309 9.28418 111.586 9.71582 111.218 10.4521H111.192V6.84033H110.088V16ZM122.506 16.1143C124.195 16.1143 125.312 14.7749 125.312 12.6992C125.312 10.6299 124.188 9.28418 122.525 9.28418C121.592 9.28418 120.824 9.74756 120.411 10.5029H120.386V6.84033H119.282V16H120.335V14.8828H120.361C120.786 15.6445 121.541 16.1143 122.506 16.1143ZM122.29 10.2554C123.458 10.2554 124.182 11.2012 124.182 12.6992C124.182 14.21 123.458 15.1431 122.29 15.1431C121.173 15.1431 120.38 14.1719 120.38 12.6992C120.38 11.2329 121.173 10.2554 122.29 10.2554ZM128.182 7.17676C128.461 7.05615 128.607 7.02441 128.83 7.02441C129.147 7.02441 129.395 7.24023 129.395 7.50684C129.395 7.83057 129.211 8.04004 128.811 8.17334L129.198 8.70654C129.82 8.48438 130.226 7.99561 130.226 7.4624C130.226 6.78955 129.756 6.35156 129.033 6.35156C128.69 6.35156 128.455 6.396 128.182 6.51025V7.17676ZM131.984 12.6992C131.984 11.6646 131.68 10.8521 131.166 10.2617V10.2363H131.375C131.896 10.2363 132.27 9.82373 132.27 9.25244V8.08447H131.273V8.92236C131.273 9.34766 131.108 9.49365 130.607 9.49365C130.061 9.49365 129.756 9.28418 128.931 9.28418C127.103 9.28418 125.872 10.5918 125.872 12.6992C125.872 14.8003 127.103 16.1143 128.931 16.1143C130.753 16.1143 131.984 14.8003 131.984 12.6992ZM128.931 15.1431C127.763 15.1431 126.995 14.2544 126.995 12.6992C126.995 11.144 127.763 10.2554 128.931 10.2554C130.099 10.2554 130.861 11.144 130.861 12.6992C130.861 14.2544 130.099 15.1431 128.931 15.1431ZM133.75 8.22412C134.137 8.22412 134.442 7.91309 134.442 7.53223C134.442 7.14502 134.137 6.84033 133.75 6.84033C133.369 6.84033 133.058 7.14502 133.058 7.53223C133.058 7.91309 133.369 8.22412 133.75 8.22412ZM133.198 16H134.303V9.39844H133.198V16Z" fill="white"/>
</svg>
