<svg width="29" height="28" viewBox="0 0 29 28" fill="none" xmlns="http://www.w3.org/2000/svg">
<path d="M14.904 12.0975C17.8575 12.0975 20.8071 12.1325 23.7647 12.0765C24.6812 12.0595 25.0264 12.2466 25.0074 13.2541C24.9423 16.777 24.9954 20.3009 24.9764 23.8248C24.9674 25.3416 24.323 25.9889 22.8022 25.9939C17.5174 26.0113 12.2322 26.0113 6.94669 25.9939C5.39286 25.9939 4.7335 25.3876 4.71849 23.8798C4.68447 20.3049 4.7375 16.729 4.68447 13.154C4.66947 12.1865 5.08469 12.0725 5.88512 12.0825C8.89373 12.1185 11.8993 12.0975 14.904 12.0975ZM13.075 15.03C12.6439 14.9802 12.2073 15.0439 11.8084 15.2149C11.4096 15.3858 11.0623 15.658 10.8011 16.0046C10.5399 16.3511 10.3739 16.7599 10.3194 17.1904C10.2649 17.6209 10.3239 18.0582 10.4906 18.4589C11.3845 20.2699 12.7229 21.8248 14.3807 22.9783C14.4457 23.0414 14.5227 23.0907 14.6072 23.1232C14.6917 23.1558 14.7819 23.1711 14.8725 23.168C14.963 23.1649 15.0519 23.1436 15.134 23.1053C15.2161 23.0671 15.2896 23.0126 15.3502 22.9453C16.879 21.6356 18.4609 20.3569 19.2033 18.3959C19.3828 18.0212 19.4581 17.605 19.4212 17.1911C19.3844 16.7773 19.2368 16.381 18.9938 16.0439C18.7509 15.7068 18.4217 15.4414 18.0408 15.2755C17.6598 15.1096 17.2412 15.0493 16.829 15.1011C15.4282 15.3752 14.1546 15.8675 13.075 15.03Z" fill="#61616A"/>
<path d="M14.7058 10.4065C11.6561 10.4065 8.60251 10.4466 5.55688 10.3735C4.93054 10.3585 3.80495 11.0499 3.77293 9.48904C3.73491 7.60603 4.16013 6.76959 5.5919 6.66253C6.82556 6.56948 8.07123 6.6045 9.31089 6.62351C9.93923 6.63351 10.2514 6.65252 10.2584 5.75905C10.2296 5.32925 10.306 4.89891 10.4809 4.50526C10.6558 4.11161 10.9239 3.76648 11.2622 3.49976C11.6004 3.23304 11.9986 3.05277 12.4221 2.9745C12.8457 2.89624 13.282 2.92235 13.6932 3.05059C13.9439 3.14265 14.2153 3.16256 14.4767 3.10809C14.7381 3.05362 14.979 2.92694 15.172 2.74243C15.637 2.32243 16.2245 2.06278 16.848 2.00172C17.4716 1.94066 18.0983 2.08141 18.6359 2.40324C19.192 2.63597 19.6572 3.04345 19.9612 3.56405C20.2652 4.08466 20.3914 4.69009 20.3208 5.28879C20.1827 6.4184 20.5329 6.76758 21.6135 6.62751C22.1795 6.58292 22.7479 6.57924 23.3144 6.6165C25.4605 6.65152 26.257 7.67807 25.9288 9.7922C25.7937 10.6577 25.2284 10.3925 24.7822 10.3925C21.4294 10.4145 18.0666 10.4065 14.7058 10.4065ZM16.5518 6.65651C17.6303 6.59248 18.4338 6.39739 18.4638 5.2978C18.4882 5.11518 18.4706 4.9294 18.4125 4.75457C18.3544 4.57974 18.2573 4.42043 18.1285 4.28871C17.9996 4.157 17.8425 4.05635 17.669 3.99438C17.4955 3.93241 17.3102 3.91076 17.1271 3.93105C16.0565 3.95507 15.8264 4.74549 15.7794 5.65398C15.7403 6.36536 15.9565 6.76157 16.5518 6.65651ZM12.9669 4.83555C12.7482 4.84517 12.5423 4.941 12.3942 5.10208C12.246 5.26315 12.1677 5.47634 12.1764 5.695C12.1484 6.37336 12.6077 6.53846 13.144 6.6205C13.6802 6.70254 13.8763 6.43641 13.8603 5.92914C13.8423 5.36984 13.6832 4.9326 12.9669 4.83555Z" fill="#61616A"/>
</svg>
