<svg width="29" height="28" viewBox="0 0 29 28" fill="none" xmlns="http://www.w3.org/2000/svg">
<path d="M17.1251 7.97595L17.1251 7.97607C16.9042 8.28016 16.8131 8.65955 16.872 9.03076C16.9308 9.40198 17.1347 9.73462 17.4388 9.9555C17.7429 10.1764 18.1223 10.2674 18.4935 10.2086C18.8647 10.1498 19.1973 9.94586 19.4182 9.64177L20.4961 8.15872L20.4962 8.1586C20.6056 8.00803 20.6842 7.83739 20.7277 7.65642C20.7711 7.47546 20.7784 7.28771 20.7493 7.10391C20.7202 6.92011 20.6551 6.74384 20.5579 6.58517C20.4606 6.42649 20.3331 6.28854 20.1825 6.17917C20.0319 6.0698 19.8613 5.99116 19.6803 5.94773C19.4994 5.90431 19.3116 5.89695 19.1278 5.92608C18.944 5.95522 18.7677 6.02027 18.6091 6.11752C18.4504 6.21478 18.3124 6.34234 18.2031 6.4929L17.1251 7.97595ZM11.88 7.97666L11.8792 7.97563L10.8002 6.49355C10.8 6.49331 10.7998 6.49307 10.7997 6.49283C10.6903 6.34202 10.5524 6.21425 10.3936 6.11683C10.2346 6.01925 10.0578 5.95405 9.87356 5.92496C9.68928 5.89587 9.50106 5.90346 9.31972 5.94731C9.13866 5.99109 8.96801 6.07015 8.81755 6.17995C8.66722 6.28914 8.53984 6.42684 8.44265 6.5852C8.34532 6.74381 8.28019 6.92004 8.25099 7.10383C8.22178 7.28762 8.22907 7.47536 8.27244 7.65633C8.31581 7.8373 8.39441 8.00795 8.50375 8.15853L8.50389 8.15872L9.58137 9.64118C9.58144 9.64127 9.5815 9.64136 9.58157 9.64145C9.8023 9.94611 10.135 10.1507 10.5065 10.2101C10.8781 10.2696 11.2581 10.179 11.5629 9.95823C11.8677 9.7375 12.0724 9.40472 12.1319 9.03311C12.1913 8.66149 12.1007 8.28148 11.88 7.97666ZM10.5569 18.6638L10.3855 19.6627L11.2825 19.1909L14.5 17.4983L17.7176 19.1909L18.6145 19.6627L18.4431 18.6638L17.8285 15.0812L20.4315 12.544L21.1571 11.8367L20.1544 11.6911L16.5571 11.1688L14.9483 7.9119L14.5 7.00436L14.0517 7.9119L12.4429 11.1688L8.84566 11.6911L7.8429 11.8367L8.56851 12.544L11.1715 15.0812L10.5569 18.6638ZM8.66652 5.26957C10.3932 4.11581 12.4233 3.5 14.5 3.5C17.2848 3.5 19.9555 4.60625 21.9246 6.57538C23.8938 8.54452 25 11.2152 25 14C25 16.0767 24.3842 18.1068 23.2304 19.8335C22.0767 21.5602 20.4368 22.906 18.5182 23.7008C16.5996 24.4955 14.4884 24.7034 12.4516 24.2983C10.4148 23.8931 8.54384 22.8931 7.07539 21.4246C5.60693 19.9562 4.6069 18.0853 4.20176 16.0485C3.79661 14.0117 4.00455 11.9005 4.79927 9.98183C5.59399 8.0632 6.9398 6.42333 8.66652 5.26957ZM6.55341 17.9734C6.74032 17.9821 6.92706 17.9537 7.10287 17.8899L8.82614 17.3294C9.00712 17.2777 9.17408 17.1907 9.31958 17.0746C9.46919 16.9553 9.59306 16.8068 9.68371 16.6382C9.77436 16.4697 9.82991 16.2845 9.84701 16.0938C9.86411 15.9032 9.84241 15.7111 9.78321 15.5291C9.724 15.3471 9.62853 15.1789 9.50256 15.0348C9.37658 14.8907 9.22271 14.7737 9.05024 14.6907C8.87777 14.6077 8.69027 14.5605 8.49906 14.552C8.31199 14.5437 8.12517 14.5725 7.94939 14.6368L6.22593 15.1974C6.04618 15.2494 5.87848 15.3365 5.73253 15.4537C5.58363 15.5733 5.46044 15.7217 5.37038 15.8901C5.28031 16.0585 5.22522 16.2434 5.20842 16.4336C5.19162 16.6238 5.21345 16.8155 5.27261 16.9971C5.33176 17.1787 5.42702 17.3464 5.55265 17.4902C5.67829 17.6341 5.83171 17.751 6.00368 17.834C6.17566 17.9171 6.36265 17.9645 6.55341 17.9734ZM15.5017 23.2517C15.7674 22.9861 15.9167 22.6257 15.9167 22.25V20.4167C15.9167 20.041 15.7674 19.6806 15.5017 19.4149C15.2361 19.1493 14.8757 19 14.5 19C14.1243 19 13.764 19.1493 13.4983 19.4149C13.2326 19.6806 13.0833 20.041 13.0833 20.4167V22.25C13.0833 22.6257 13.2326 22.9861 13.4983 23.2517C13.764 23.5174 14.1243 23.6667 14.5 23.6667C14.8757 23.6667 15.2361 23.5174 15.5017 23.2517ZM19.6814 17.0765C19.8277 17.1933 19.9958 17.2798 20.1757 17.3313L21.899 17.8918C22.0744 17.9554 22.2603 17.984 22.4475 17.9752C22.6383 17.9663 22.8253 17.9189 22.9973 17.8359C23.1692 17.7528 23.3227 17.6359 23.4483 17.4921C23.5739 17.3482 23.6692 17.1805 23.7283 16.9989C23.7875 16.8173 23.8093 16.6257 23.7925 16.4354C23.7757 16.2452 23.7206 16.0604 23.6306 15.8919C23.5405 15.7236 23.4173 15.5751 23.2684 15.4555C23.1225 15.3383 22.9548 15.2512 22.775 15.1992L21.0515 14.6386C20.8758 14.5743 20.6889 14.5455 20.5019 14.5538C20.3107 14.5624 20.1232 14.6095 19.9507 14.6925C19.7782 14.7755 19.6244 14.8926 19.4984 15.0367C19.3724 15.1808 19.2769 15.3489 19.2177 15.5309C19.1585 15.7129 19.1368 15.905 19.1539 16.0957C19.171 16.2863 19.2266 16.4715 19.3172 16.6401C19.4079 16.8086 19.5318 16.9571 19.6814 17.0765Z" fill="#FF753A" fill-opacity="0.3" stroke="#FF753A"/>
</svg>
