<svg width="29" height="28" viewBox="0 0 29 28" fill="none" xmlns="http://www.w3.org/2000/svg">
<path d="M14.5 3C12.3244 3 10.1977 3.64514 8.38874 4.85384C6.57979 6.06253 5.1699 7.7805 4.33733 9.79049C3.50477 11.8005 3.28693 14.0122 3.71137 16.146C4.1358 18.2798 5.18345 20.2398 6.72183 21.7782C8.26021 23.3166 10.2202 24.3642 12.354 24.7887C14.4878 25.2131 16.6995 24.9953 18.7095 24.1627C20.7195 23.3301 22.4375 21.9202 23.6462 20.1113C24.8549 18.3023 25.5 16.1756 25.5 14C25.5 11.0826 24.3411 8.28473 22.2782 6.22183C20.2153 4.15893 17.4174 3 14.5 3ZM17.5296 8.26992L18.6076 6.78675C18.6784 6.68931 18.7677 6.60676 18.8704 6.54381C18.973 6.48087 19.0871 6.43877 19.2061 6.41992C19.325 6.40107 19.4465 6.40583 19.5636 6.43393C19.6808 6.46203 19.7912 6.51293 19.8886 6.58371C19.9861 6.65449 20.0686 6.74378 20.1316 6.84646C20.1945 6.94915 20.2366 7.06323 20.2555 7.18218C20.2743 7.30114 20.2696 7.42264 20.2415 7.53976C20.2134 7.65687 20.1625 7.76731 20.0917 7.86475L19.0137 9.34792C18.8707 9.54472 18.6555 9.67668 18.4152 9.71476C18.175 9.75283 17.9294 9.69392 17.7326 9.55096C17.5358 9.40801 17.4039 9.19274 17.3658 8.95249C17.3277 8.71225 17.3866 8.46672 17.5296 8.26992ZM9.11184 6.58417C9.20931 6.51295 9.31989 6.46168 9.43723 6.43331C9.55457 6.40493 9.67635 6.40002 9.7956 6.41884C9.91484 6.43767 10.0292 6.47986 10.1321 6.54299C10.235 6.60613 10.3244 6.68897 10.3952 6.78675L11.475 8.26992C11.618 8.46733 11.6766 8.71344 11.6381 8.95411C11.5996 9.19479 11.4671 9.4103 11.2697 9.55326C11.0723 9.69621 10.8262 9.75488 10.5855 9.71638C10.3448 9.67787 10.1293 9.54533 9.98634 9.34792L8.90834 7.86475C8.83759 7.76732 8.78674 7.6569 8.75867 7.5398C8.73061 7.4227 8.72589 7.30122 8.74479 7.1823C8.76369 7.06338 8.80583 6.94935 8.86881 6.84672C8.93179 6.74409 9.01437 6.65487 9.11184 6.58417ZM8.68101 16.8508L6.93934 17.4173C6.82353 17.4604 6.70021 17.4797 6.57677 17.4739C6.45334 17.4681 6.33234 17.4375 6.22106 17.3838C6.10978 17.33 6.01051 17.2544 5.92922 17.1613C5.84793 17.0682 5.78629 16.9597 5.74801 16.8422C5.70974 16.7247 5.69561 16.6007 5.70648 16.4776C5.71735 16.3545 5.753 16.2349 5.81128 16.1259C5.86956 16.017 5.94926 15.9209 6.04561 15.8435C6.14195 15.7662 6.25295 15.7091 6.37192 15.6757L8.11359 15.1092C8.22952 15.0656 8.35308 15.046 8.47681 15.0515C8.60053 15.057 8.72185 15.0875 8.83345 15.1412C8.94505 15.1949 9.04462 15.2707 9.12613 15.3639C9.20764 15.4572 9.26942 15.566 9.30772 15.6837C9.34603 15.8015 9.36008 15.9258 9.34901 16.0492C9.33795 16.1725 9.302 16.2924 9.24334 16.4014C9.18469 16.5105 9.10454 16.6066 9.00773 16.6838C8.91092 16.761 8.80038 16.8179 8.68101 16.8508ZM15.4167 22.25C15.4167 22.4931 15.3201 22.7263 15.1482 22.8982C14.9763 23.0701 14.7431 23.1667 14.5 23.1667C14.2569 23.1667 14.0237 23.0701 13.8518 22.8982C13.6799 22.7263 13.5833 22.4931 13.5833 22.25V20.4167C13.5833 20.1736 13.6799 19.9404 13.8518 19.7685C14.0237 19.5966 14.2569 19.5 14.5 19.5C14.7431 19.5 14.9763 19.5966 15.1482 19.7685C15.3201 19.9404 15.4167 20.1736 15.4167 20.4167V22.25ZM14.5 16.9333L11.0497 18.7483L11.7088 14.9066L8.91751 12.1859L12.7748 11.6258L14.5 8.13334L16.2252 11.6258L20.0825 12.1859L17.2913 14.9066L17.9503 18.7483L14.5 16.9333ZM22.0625 17.4192L20.3209 16.8527C20.2015 16.8197 20.09 16.7629 19.9932 16.6856C19.8964 16.6084 19.8163 16.5123 19.7576 16.4033C19.6989 16.2942 19.663 16.1744 19.6519 16.051C19.6409 15.9277 19.6549 15.8033 19.6932 15.6856C19.7315 15.5678 19.7933 15.459 19.8748 15.3658C19.9563 15.2725 20.0559 15.1968 20.1675 15.1431C20.2791 15.0894 20.4004 15.0589 20.5241 15.0533C20.6479 15.0478 20.7714 15.0674 20.8874 15.111L22.629 15.6775C22.748 15.7109 22.859 15.768 22.9553 15.8454C23.0517 15.9227 23.1314 16.0188 23.1897 16.1278C23.2479 16.2367 23.2836 16.3563 23.2945 16.4794C23.3053 16.6025 23.2912 16.7265 23.2529 16.844C23.2147 16.9615 23.153 17.0701 23.0717 17.1631C22.9904 17.2562 22.8912 17.3319 22.7799 17.3856C22.6686 17.4393 22.5476 17.47 22.4242 17.4758C22.3007 17.4815 22.1783 17.4623 22.0625 17.4192Z" fill="#8E8E93"/>
</svg>
