<svg width="28" height="28" viewBox="0 0 28 28" fill="none" xmlns="http://www.w3.org/2000/svg">
<path d="M18.2859 5.54382C18.2859 4.7598 18.2448 4.32849 18.2945 3.90677C18.4063 2.94831 19.1275 2.93297 19.8583 2.93872C20.569 2.94447 21.1603 3.08057 21.1813 3.96714C21.2164 4.28907 21.2186 4.61377 21.188 4.93615C20.9484 5.90201 21.0513 6.92139 21.4791 7.81942C21.9068 8.71745 22.6327 9.43816 23.5322 9.85784C23.8972 10.0874 24.2284 10.3671 24.5161 10.6888C25.3367 11.5342 25.1848 12.3661 24.027 12.5166C23.067 12.6421 23.0851 13.0917 23.089 13.7731C23.1043 16.7386 23.1043 19.7044 23.089 22.6705C23.0804 24.366 22.4614 24.9851 20.7514 24.9899C15.9146 25.0034 11.0778 25.0034 6.24092 24.9899C4.659 24.9842 4.02089 24.342 4.0056 22.7289C3.97822 19.8178 3.97822 16.906 4.0056 13.9935C4.01229 13.1913 4.0123 12.6613 2.93858 12.483C1.8448 12.3009 1.76264 11.3894 2.5794 10.7041C5.95722 7.86999 9.37993 5.08856 12.7902 2.2937C13.4952 1.71863 14.0779 2.08571 14.6492 2.5611C15.7602 3.47834 16.8759 4.386 18.2859 5.54382ZM16.3486 19.3264C16.3486 18.414 16.3113 17.4986 16.3601 16.5881C16.4002 15.8213 16.2645 15.3958 15.3389 15.46C14.1619 15.5362 12.9813 15.5362 11.8044 15.46C10.9313 15.4073 10.7164 15.7475 10.746 16.5622C10.8353 18.0626 10.8311 19.5671 10.7335 21.067C10.5969 22.6053 10.9542 23.1756 12.6622 23.097C16.3438 22.9398 16.3496 23.0529 16.3496 19.3255L16.3486 19.3264Z" fill="#61616A"/>
</svg>
