<svg width="20" height="20" viewBox="0 0 20 20" fill="none" xmlns="http://www.w3.org/2000/svg">
<g clip-path="url(#clip0)">
<path d="M18.8541 6.84917L10.5208 0.182508C10.373 0.0641714 10.1893 -0.000305176 9.99998 -0.000305176C9.81064 -0.000305176 9.62695 0.0641714 9.47915 0.182508L1.14581 6.84917C1.04826 6.92728 0.969516 7.02633 0.915422 7.13899C0.861328 7.25165 0.833266 7.37503 0.833313 7.50001V18.3333C0.833313 18.5544 0.92111 18.7663 1.07739 18.9226C1.23367 19.0789 1.44563 19.1667 1.66665 19.1667H7.49998V12.5H12.5V19.1667H18.3333C18.5543 19.1667 18.7663 19.0789 18.9226 18.9226C19.0788 18.7663 19.1666 18.5544 19.1666 18.3333V7.50001C19.1667 7.37503 19.1386 7.25165 19.0845 7.13899C19.0304 7.02633 18.9517 6.92728 18.8541 6.84917Z" fill="#FF753A"/>
</g>
<defs>
<clipPath id="clip0">
<rect width="20" height="20" fill="white"/>
</clipPath>
</defs>
</svg>
