<svg width="28" height="28" viewBox="0 0 28 28" fill="none" xmlns="http://www.w3.org/2000/svg">
<circle cx="14" cy="14" r="13.4167" stroke="#8E8E93" stroke-width="1.16667"/>
<path fill-rule="evenodd" clip-rule="evenodd" d="M14 6.125C13.0717 6.125 12.1815 6.49375 11.5251 7.15013C10.8687 7.8065 10.5 8.69674 10.5 9.625C10.5 10.5533 10.8687 11.4435 11.5251 12.0999C12.1815 12.7563 13.0717 13.125 14 13.125C14.9283 13.125 15.8185 12.7563 16.4749 12.0999C17.1313 11.4435 17.5 10.5533 17.5 9.625C17.5 8.69674 17.1313 7.8065 16.4749 7.15013C15.8185 6.49375 14.9283 6.125 14 6.125ZM11.5 9.625C11.5 8.96196 11.7634 8.32607 12.2322 7.85723C12.7011 7.38839 13.337 7.125 14 7.125C14.663 7.125 15.2989 7.38839 15.7678 7.85723C16.2366 8.32607 16.5 8.96196 16.5 9.625C16.5 10.288 16.2366 10.9239 15.7678 11.3928C15.2989 11.8616 14.663 12.125 14 12.125C13.337 12.125 12.7011 11.8616 12.2322 11.3928C11.7634 10.9239 11.5 10.288 11.5 9.625Z" fill="#8E8E93"/>
<path fill-rule="evenodd" clip-rule="evenodd" d="M9.47914 14.875C8.76839 14.875 8.0544 15.26 7.70979 16.0137C7.42764 16.6297 7.08249 17.5455 7.0071 18.4928C6.95164 19.194 7.22087 19.9162 7.8164 20.3175C8.75869 20.9516 10.702 21.875 14 21.875C17.298 21.875 19.2408 20.9516 20.1836 20.3175C20.7791 19.9162 21.0484 19.194 20.9929 18.4928C20.9175 17.5455 20.5724 16.6297 20.2902 16.0137C19.9456 15.26 19.2316 14.875 18.5209 14.875H9.47914ZM8.67469 16.5317C8.80931 16.2371 9.11084 16.0417 9.47914 16.0417H18.5209C18.8897 16.0417 19.1907 16.2371 19.3253 16.5317C19.5838 17.0963 19.8616 17.8593 19.9198 18.5926C19.9456 18.9192 19.8201 19.1882 19.615 19.3264C18.8477 19.8433 17.1026 20.7083 14 20.7083C10.898 20.7083 9.15284 19.8432 8.38447 19.3258C8.17986 19.1882 8.0544 18.9187 8.08024 18.5926C8.13839 17.8587 8.41624 17.0963 8.67469 16.5317Z" fill="#8E8E93"/>
</svg>
