<svg width="20" height="20" viewBox="0 0 20 20" fill="none" xmlns="http://www.w3.org/2000/svg">
<path d="M15 6.66658H14.1667V4.99992C14.1667 2.69992 12.3 0.833252 9.99999 0.833252C7.69999 0.833252 5.83333 2.69992 5.83333 4.99992V6.66658H4.99999C4.08333 6.66658 3.33333 7.41658 3.33333 8.33325V16.6666C3.33333 17.5833 4.08333 18.3333 4.99999 18.3333H15C15.9167 18.3333 16.6667 17.5833 16.6667 16.6666V8.33325C16.6667 7.41658 15.9167 6.66658 15 6.66658ZM9.99999 14.1666C9.08333 14.1666 8.33333 13.4166 8.33333 12.4999C8.33333 11.5833 9.08333 10.8333 9.99999 10.8333C10.9167 10.8333 11.6667 11.5833 11.6667 12.4999C11.6667 13.4166 10.9167 14.1666 9.99999 14.1666ZM12.5833 6.66658H7.41666V4.99992C7.41666 3.57492 8.57499 2.41659 9.99999 2.41659C11.425 2.41659 12.5833 3.57492 12.5833 4.99992V6.66658Z" fill="#111111"/>
</svg>
