<svg width="12" height="10" viewBox="0 0 12 10" fill="none" xmlns="http://www.w3.org/2000/svg">
<path d="M11.6855 6.37443L9.8145 5.62443C9.72188 5.58743 9.64244 5.52357 9.58639 5.44106C9.53035 5.35856 9.50026 5.26117 9.5 5.16143V4.72243C9.80325 4.54841 10.0553 4.29759 10.2309 3.99522C10.4064 3.69284 10.4992 3.34957 10.5 2.99993V2.08593C10.5085 1.57831 10.329 1.08548 9.99606 0.702173C9.66315 0.318868 9.2003 0.0721454 8.6965 0.00943252C8.41862 -0.0180018 8.13808 0.0130549 7.87293 0.100603C7.60778 0.188152 7.3639 0.330252 7.15699 0.517756C6.95008 0.70526 6.78473 0.934013 6.67157 1.18929C6.55842 1.44456 6.49998 1.7207 6.5 1.99993V2.99993C6.50076 3.34957 6.59359 3.69284 6.76913 3.99522C6.94467 4.29759 7.19675 4.54841 7.5 4.72243V5.16143C7.33538 5.57378 7.05817 5.93155 6.7 6.19393C6.666 6.21593 6.633 6.24043 6.6 6.26293L7.0555 6.44543C7.33466 6.55585 7.57409 6.74781 7.74256 6.99628C7.91104 7.24476 8.00075 7.53823 8 7.83843V8.99993C7.99834 9.17065 7.96722 9.33981 7.908 9.49993H11.5C11.6326 9.49993 11.7598 9.44726 11.8536 9.35349C11.9473 9.25972 12 9.13254 12 8.99993V6.83843C11.9999 6.73852 11.9699 6.64092 11.9139 6.55822C11.8578 6.47551 11.7783 6.4115 11.6855 6.37443Z" fill="#FF753A"/>
<path d="M6.6855 7.37436L4.8145 6.62436C4.72188 6.58736 4.64244 6.5235 4.58639 6.44099C4.53035 6.35848 4.50026 6.2611 4.5 6.16136V5.93586C5.07846 5.88412 5.63573 5.69282 6.124 5.37836C6.17764 5.33873 6.2227 5.28864 6.25646 5.23112C6.29022 5.1736 6.31199 5.10984 6.32045 5.04369C6.3289 4.97753 6.32388 4.91035 6.30567 4.84618C6.28746 4.78202 6.25645 4.72221 6.2145 4.67036C5.81271 4.2061 5.56328 3.62958 5.5 3.01886C5.51463 2.66853 5.43401 2.32079 5.26672 2.01264C5.09944 1.70448 4.85175 1.44744 4.55 1.26886C4.24361 1.08832 3.89504 0.991731 3.53943 0.988837C3.18382 0.985942 2.83372 1.07684 2.52444 1.25237C2.21515 1.42791 1.9576 1.68187 1.77775 1.98866C1.59789 2.29546 1.50209 2.64424 1.5 2.99986C1.44219 3.61781 1.19233 4.20215 0.7855 4.67086C0.743566 4.72267 0.712563 4.78244 0.69436 4.84656C0.676158 4.91069 0.671134 4.97783 0.679591 5.04395C0.688048 5.11006 0.709812 5.17378 0.743568 5.23126C0.777325 5.28873 0.822375 5.33877 0.876 5.37836C1.36427 5.69282 1.92154 5.88412 2.5 5.93586V6.16136C2.49994 6.26127 2.46994 6.35887 2.41389 6.44158C2.35783 6.52428 2.27828 6.58829 2.1855 6.62536L0.3145 7.37536C0.221877 7.41236 0.142438 7.47622 0.0863938 7.55873C0.0303499 7.64124 0.000262743 7.73862 0 7.83836L0 8.99986C0 9.13247 0.0526784 9.25964 0.146447 9.35341C0.240215 9.44718 0.367392 9.49986 0.5 9.49986H6.5C6.63261 9.49986 6.75979 9.44718 6.85355 9.35341C6.94732 9.25964 7 9.13247 7 8.99986V7.83836C6.99994 7.73845 6.96994 7.64085 6.91389 7.55814C6.85783 7.47544 6.77828 7.41143 6.6855 7.37436Z" fill="#FF753A"/>
</svg>
