<svg width="12" height="12" viewBox="0 0 12 12" fill="none" xmlns="http://www.w3.org/2000/svg">
<path d="M11.6855 7.37456L9.8145 6.62456C9.72188 6.58755 9.64244 6.52369 9.58639 6.44119C9.53035 6.35868 9.50026 6.2613 9.5 6.16156V5.72256C9.80325 5.54853 10.0553 5.29771 10.2309 4.99534C10.4064 4.69296 10.4992 4.34969 10.5 4.00006V3.08606C10.5085 2.57843 10.329 2.0856 9.99606 1.70229C9.66315 1.31899 9.2003 1.07227 8.6965 1.00955C8.41862 0.98212 8.13808 1.01318 7.87293 1.10073C7.60778 1.18827 7.3639 1.33037 7.15699 1.51788C6.95008 1.70538 6.78473 1.93413 6.67157 2.18941C6.55842 2.44468 6.49998 2.72083 6.5 3.00006V4.00006C6.50076 4.34969 6.59359 4.69296 6.76913 4.99534C6.94467 5.29771 7.19675 5.54853 7.5 5.72256V6.16156C7.33538 6.5739 7.05817 6.93167 6.7 7.19406C6.666 7.21606 6.633 7.24056 6.6 7.26306L7.0555 7.44556C7.33466 7.55597 7.57409 7.74793 7.74256 7.99641C7.91104 8.24488 8.00075 8.53835 8 8.83856V10.0001C7.99834 10.1708 7.96722 10.3399 7.908 10.5001H11.5C11.6326 10.5001 11.7598 10.4474 11.8536 10.3536C11.9473 10.2598 12 10.1327 12 10.0001V7.83856C11.9999 7.73864 11.9699 7.64104 11.9139 7.55834C11.8578 7.47564 11.7783 7.41162 11.6855 7.37456Z" fill="#C7C7CC"/>
<path d="M6.6855 8.3746L4.8145 7.6246C4.72188 7.5876 4.64244 7.52374 4.58639 7.44123C4.53035 7.35873 4.50026 7.26134 4.5 7.1616V6.9361C5.07846 6.88437 5.63573 6.69306 6.124 6.3786C6.17764 6.33897 6.2227 6.28888 6.25646 6.23137C6.29022 6.17385 6.31199 6.11009 6.32045 6.04393C6.3289 5.97777 6.32388 5.91059 6.30567 5.84643C6.28746 5.78227 6.25645 5.72246 6.2145 5.6706C5.81271 5.20634 5.56328 4.62982 5.5 4.01911C5.51463 3.66878 5.43401 3.32104 5.26672 3.01288C5.09944 2.70473 4.85175 2.44769 4.55 2.26911C4.24361 2.08856 3.89504 1.99198 3.53943 1.98908C3.18382 1.98619 2.83372 2.07709 2.52444 2.25262C2.21515 2.42815 1.9576 2.68211 1.77775 2.98891C1.59789 3.2957 1.50209 3.64449 1.5 4.00011C1.44219 4.61805 1.19233 5.20239 0.7855 5.6711C0.743566 5.72292 0.712563 5.78269 0.69436 5.84681C0.676158 5.91093 0.671134 5.97807 0.679591 6.04419C0.688048 6.11031 0.709812 6.17402 0.743568 6.2315C0.777325 6.28897 0.822375 6.33902 0.876 6.3786C1.36427 6.69306 1.92154 6.88437 2.5 6.9361V7.1616C2.49994 7.26152 2.46994 7.35912 2.41389 7.44182C2.35783 7.52452 2.27828 7.58854 2.1855 7.6256L0.3145 8.3756C0.221877 8.41261 0.142438 8.47647 0.0863938 8.55897C0.0303499 8.64148 0.000262743 8.73886 0 8.8386L0 10.0001C0 10.1327 0.0526784 10.2599 0.146447 10.3537C0.240215 10.4474 0.367392 10.5001 0.5 10.5001H6.5C6.63261 10.5001 6.75979 10.4474 6.85355 10.3537C6.94732 10.2599 7 10.1327 7 10.0001V8.8386C6.99994 8.73869 6.96994 8.64109 6.91389 8.55839C6.85783 8.47568 6.77828 8.41167 6.6855 8.3746Z" fill="#C7C7CC"/>
</svg>
