<svg width="20" height="20" viewBox="0 0 20 20" fill="none" xmlns="http://www.w3.org/2000/svg">
<path fill-rule="evenodd" clip-rule="evenodd" d="M10 20C15.5228 20 20 15.5228 20 10C20 4.47715 15.5228 0 10 0C4.47715 0 0 4.47715 0 10C0 15.5228 4.47715 20 10 20Z" fill="#FF753A"/>
<path fill-rule="evenodd" clip-rule="evenodd" d="M11.1364 5.22728C11.1364 5.85487 10.6276 6.36364 10 6.36364C9.37242 6.36364 8.86365 5.85487 8.86365 5.22728C8.86365 4.59968 9.37242 4.09091 10 4.09091C10.6276 4.09091 11.1364 4.59968 11.1364 5.22728ZM9.09084 7.27274H8.18182V8.18183H9.09084V14.5454H8.18182V15.4545H9.09084V15.4546H10.909V15.4545H11.8182V14.5454H10.909V8.18183H10.9091V7.27274H10.909H9.09084Z" fill="white"/>
</svg>
