<svg width="28" height="28" viewBox="0 0 28 28" fill="none" xmlns="http://www.w3.org/2000/svg">
<path d="M14 26C20.6274 26 26 20.6274 26 14C26 7.37258 20.6274 2 14 2C7.37258 2 2 7.37258 2 14C2 20.6274 7.37258 26 14 26Z" fill="#61616A"/>
<path d="M16.9167 16.3334C15.1953 16.3334 13.765 15.9606 12.8334 15.3347C12.8334 15.7699 12.8334 16.0569 12.8334 16.3334C12.8334 17.3 14.6615 18.0834 16.9167 18.0834C19.1719 18.0834 21 17.3 21 16.3334C21 16.0569 21 15.7699 21 15.3347C20.0685 15.9606 18.6381 16.3334 16.9167 16.3334Z" fill="white"/>
<path d="M16.9167 19.2501C15.1953 19.2501 13.765 18.8774 12.8334 18.2515C12.8334 18.6866 12.8334 18.9736 12.8334 19.2501C12.8334 20.2167 14.6615 21.0001 16.9167 21.0001C19.1719 21.0001 21 20.2167 21 19.2501C21 18.9736 21 18.6866 21 18.2515C20.0685 18.8774 18.6381 19.2501 16.9167 19.2501Z" fill="white"/>
<path d="M16.9167 15.1667C19.1719 15.1667 21 14.3832 21 13.4167C21 12.4502 19.1719 11.6667 16.9167 11.6667C14.6615 11.6667 12.8334 12.4502 12.8334 13.4167C12.8334 14.3832 14.6615 15.1667 16.9167 15.1667Z" fill="white"/>
<path d="M11.0833 10.5C13.3385 10.5 15.1667 9.7165 15.1667 8.75C15.1667 7.7835 13.3385 7 11.0833 7C8.82817 7 7 7.7835 7 8.75C7 9.7165 8.82817 10.5 11.0833 10.5Z" fill="white"/>
<path d="M11.6667 17.4844C11.4759 17.4937 11.2823 17.5001 11.0833 17.5001C9.36192 17.5001 7.93158 17.1274 7 16.5015C7 16.9366 7 17.2236 7 17.5001C7 18.4667 8.82817 19.2501 11.0833 19.2501C11.2817 19.2501 11.4759 19.242 11.6667 19.2303V17.4844Z" fill="white"/>
<path d="M11.6667 14.5676C11.4759 14.577 11.2823 14.5834 11.0833 14.5834C9.36192 14.5834 7.93158 14.2106 7 13.5847C7 14.0199 7 14.3069 7 14.5834C7 15.55 8.82817 16.3334 11.0833 16.3334C11.2817 16.3334 11.4759 16.3252 11.6667 16.3135V14.5676Z" fill="white"/>
<path d="M12.7867 11.5301C12.2605 11.6176 11.6912 11.6666 11.0833 11.6666C9.36192 11.6666 7.93158 11.2939 7 10.668C7 11.1031 7 11.3901 7 11.6666C7 12.6332 8.82817 13.4166 11.0833 13.4166C11.2822 13.4166 11.4765 13.4085 11.6684 13.3968C11.6754 12.6601 12.0808 12.0201 12.7867 11.5301Z" fill="white"/>
</svg>
