<svg width="12" height="12" viewBox="0 0 12 12" fill="none" xmlns="http://www.w3.org/2000/svg">
<path d="M2.55952 1.08806C3.50189 0.36689 4.71511 0.00817871 5.99184 0.00817871C9.30105 0.00817871 11.9837 2.69081 11.9837 6.00005C11.9837 9.30928 9.30108 11.9919 5.99187 11.9919C2.68266 11.9919 0 9.30926 0 6.00005C0 4.63076 0.459328 3.36872 1.23227 2.35966C1.23227 2.35966 1.53202 1.87437 2.55952 1.08806Z" fill="#C7C7CC"/>
<path d="M5.99184 11.2788C8.90732 11.2788 11.2708 8.91537 11.2708 5.99989C11.2708 3.08441 8.90732 0.720947 5.99184 0.720947C3.07635 0.720947 0.712891 3.08441 0.712891 5.99989C0.712891 8.91537 3.07635 11.2788 5.99184 11.2788Z" fill="white"/>
<path d="M6.00005 10.2001C8.31965 10.2001 10.2001 8.31965 10.2001 6.00005C10.2001 3.68045 8.31965 1.80005 6.00005 1.80005C3.68045 1.80005 1.80005 3.68045 1.80005 6.00005C1.80005 8.31965 3.68045 10.2001 6.00005 10.2001Z" fill="#C7C7CC"/>
<path d="M6.00002 3L7.11234 4.53623L9 5.06263L7.79742 6.45606L7.85172 8.31762L6.00002 7.77588L4.14592 8.4L4.20021 6.53846L3 5.06263L4.88766 4.53623L6.00002 3Z" fill="white"/>
</svg>
