<svg width="20" height="20" viewBox="0 0 20 20" fill="none" xmlns="http://www.w3.org/2000/svg">
<path d="M4.61535 7.2485C6.61206 7.2485 8.23071 5.63756 8.23071 3.65037C8.23071 1.66318 6.61206 0.0522461 4.61535 0.0522461C2.61865 0.0522461 1 1.66318 1 3.65037C1 5.63756 2.61865 7.2485 4.61535 7.2485Z" fill="#F47920"/>
<path d="M10.0676 10.2586C12.0643 10.2586 13.683 8.64767 13.683 6.66048C13.683 4.67328 12.0643 3.06235 10.0676 3.06235C8.07092 3.06235 6.45227 4.67328 6.45227 6.66048C6.45227 8.64767 8.07092 10.2586 10.0676 10.2586Z" fill="#F99F1B"/>
<path d="M15.3846 13.4006C17.3813 13.4006 19 11.7896 19 9.80244C19 7.81525 17.3813 6.20432 15.3846 6.20432C13.3879 6.20432 11.7693 7.81525 11.7693 9.80244C11.7693 11.7896 13.3879 13.4006 15.3846 13.4006Z" fill="#FEC80A"/>
<path d="M10.0676 16.4076C12.0643 16.4076 13.683 14.7967 13.683 12.8095C13.683 10.8223 12.0643 9.21133 10.0676 9.21133C8.07092 9.21133 6.45227 10.8223 6.45227 12.8095C6.45227 14.7967 8.07092 16.4076 10.0676 16.4076Z" fill="#F47920"/>
<path d="M4.61535 13.4006C6.61206 13.4006 8.23071 11.7896 8.23071 9.80244C8.23071 7.81525 6.61206 6.20432 4.61535 6.20432C2.61865 6.20432 1 7.81525 1 9.80244C1 11.7896 2.61865 13.4006 4.61535 13.4006Z" fill="#F04A23"/>
<path d="M4.61535 19.6567C6.61206 19.6567 8.23071 18.0458 8.23071 16.0586C8.23071 14.0714 6.61206 12.4604 4.61535 12.4604C2.61865 12.4604 1 14.0714 1 16.0586C1 18.0458 2.61865 19.6567 4.61535 19.6567Z" fill="#ED1C24"/>
</svg>
