<svg width="117" height="29" viewBox="0 0 117 29" fill="none" xmlns="http://www.w3.org/2000/svg">
<g clip-path="url(#clip0)">
<path fill-rule="evenodd" clip-rule="evenodd" d="M0.610803 22.2806C0.825542 14.8522 3.06497 7.10011 10.0287 4.15648C16.1948 1.53649 24.0174 4.63424 26.1495 11.0301C28.1128 16.9482 24.3855 23.6831 18.5876 24.1917C13.3265 24.654 10.3354 21.4176 10.4581 17.1485C10.5655 14.7135 12.5902 12.2168 15.6272 12.2476C10.7189 14.2974 10.7342 22.8046 18.2961 22.3577C21.9007 22.1419 25.4746 18.0886 24.1861 13.2802C22.8057 8.11728 17.5599 5.34318 13.0964 6.62235C6.76156 8.44093 3.54046 15.6074 6.28606 21.9262C9.21573 28.6611 18.1888 31.4968 25.8274 26.3647C31.2879 22.6967 33.6654 14.4823 30.7357 7.17717C30.659 8.28681 30.5977 9.41187 30.521 10.5215C26.717 2.29167 20.4742 -1.57667 12.3908 0.596382C3.92393 2.8619 -1.96607 12.0935 0.610803 22.2806Z" fill="#F15F22"/>
<path d="M40.8174 9.39244H36.025V9.99833C37.1232 10.1751 37.3978 10.5285 37.3978 11.6393V24.0096C37.3978 25.0699 37.1981 25.3981 36 25.6V26.2059H42.7893V25.6C41.2667 25.5243 40.8673 24.7165 40.8673 23.025V19.8441C42.0654 21.0306 42.6894 21.3588 43.8127 21.3588C46.8079 21.3588 48.6051 18.6575 48.6051 14.7445C48.6051 11.0334 46.8578 9.0895 44.0872 9.0895C42.6145 9.0895 41.666 9.61965 40.8174 11.1344V9.39244ZM40.8673 12.2957C40.8673 12.1442 41.042 11.7908 41.3166 11.4626C41.8158 10.8567 42.4398 10.5285 43.0139 10.5285C44.2869 10.5285 44.9109 12.018 44.9109 15.1232C44.9109 18.607 44.1621 19.9703 42.7893 19.9703C41.9656 19.9703 41.2417 19.2887 40.8673 18.3293V12.2957Z" fill="#F15F22"/>
<path d="M54.2877 21.0306V20.4247C53.464 20.3995 53.0397 19.9956 53.0397 18.8343V3.96466H48.2722V4.57055C49.1458 4.64629 49.5702 5.27743 49.5702 6.21151V18.8343C49.5702 19.9451 49.1458 20.349 48.2972 20.4247V21.0306H54.2877Z" fill="#F15F22"/>
<path d="M66.3241 19.4149L66.0745 19.6674C65.9996 19.7431 65.9248 19.7683 65.8 19.7683C65.4505 19.7683 65.2758 19.4906 65.2758 19.0615V12.4724C65.2758 10.3013 63.4287 9.0895 60.3835 9.0895C57.563 9.0895 55.616 10.2508 55.616 12.2704C55.616 13.3307 56.2151 13.9871 57.2385 13.9871C58.2369 13.9871 58.9358 13.3307 58.9358 12.4724C58.9358 12.119 58.786 11.816 58.4616 11.4121C58.2369 11.1596 58.187 10.9829 58.187 10.8314C58.187 10.2255 58.9108 9.89735 59.8094 9.89735C61.2821 9.89735 61.8312 10.6295 61.8312 12.2452V13.9619C58.9358 14.795 57.7627 15.2494 56.8142 15.8805C55.6909 16.6379 55.1418 17.5972 55.1418 18.708C55.1418 20.5762 56.29 21.3841 57.8875 21.3841C59.3352 21.3841 60.4834 20.9044 61.8562 19.6421C62.1308 20.9296 62.6799 21.3841 63.903 21.3841C64.9763 21.3841 65.75 20.9801 66.6985 19.9451L66.3241 19.4149ZM61.8312 18.5818C61.2821 19.3644 60.683 19.5916 60.084 19.5916C59.3352 19.5916 58.786 19.011 58.786 17.9002C58.786 16.4359 59.8344 15.4009 61.8312 14.8455V18.5818Z" fill="#F15F22"/>
<path d="M76.9708 9.39244H73.1768V9.99833C74.2501 10.0488 74.5246 10.2255 74.5246 10.8314C74.5246 11.1344 74.4747 11.4121 74.2501 12.0685L72.5528 16.8146L70.7556 12.119C70.481 11.4121 70.2564 10.7557 70.2564 10.6547C70.2564 10.276 70.531 10.0741 71.155 10.0236L71.5543 9.99833V9.39244H65.3392V9.99833C65.8883 10.0741 66.0381 10.1498 66.1878 10.3518C66.4125 10.6547 67.361 12.7753 67.8602 14.0376L70.8305 21.3588L70.3812 22.6968C69.9569 23.9591 69.3328 24.7669 68.7338 24.7669C68.5091 24.7669 68.3095 24.565 68.3095 24.3378C68.3095 24.3378 68.3095 24.262 68.3344 24.1863C68.3594 24.0601 68.3843 23.9338 68.3843 23.8329C68.3843 23.1007 67.7354 22.5201 66.8867 22.5201C65.9382 22.5201 65.3392 23.2522 65.3392 24.2115C65.3392 25.3981 66.3376 26.2059 67.7603 26.2059C68.609 26.2059 69.3328 25.9282 69.857 25.3728C70.3812 24.7922 70.9054 23.8076 71.779 21.4345L75.4731 11.3868C75.8725 10.3013 76.197 10.0993 76.9708 9.99833V9.39244Z" fill="#F15F22"/>
<path d="M40.8174 9.39244H36.025V9.99833C37.1232 10.1751 37.3978 10.5285 37.3978 11.6393V24.0096C37.3978 25.0699 37.1981 25.3981 36 25.6V26.2059H42.7893V25.6C41.2667 25.5243 40.8673 24.7165 40.8673 23.025V19.8441C42.0654 21.0306 42.6894 21.3588 43.8127 21.3588C46.8079 21.3588 48.6051 18.6575 48.6051 14.7445C48.6051 11.0334 46.8578 9.0895 44.0872 9.0895C42.6145 9.0895 41.666 9.61965 40.8174 11.1344V9.39244ZM40.8673 12.2957C40.8673 12.1442 41.042 11.7908 41.3166 11.4626C41.8158 10.8567 42.4398 10.5285 43.0139 10.5285C44.2869 10.5285 44.9109 12.018 44.9109 15.1232C44.9109 18.607 44.1621 19.9703 42.7893 19.9703C41.9656 19.9703 41.2417 19.2887 40.8673 18.3293V12.2957Z" stroke="#F15F22" stroke-width="0.3"/>
<path d="M54.2877 21.0306V20.4247C53.464 20.3995 53.0397 19.9956 53.0397 18.8343V3.96466H48.2722V4.57055C49.1458 4.64629 49.5702 5.27743 49.5702 6.21151V18.8343C49.5702 19.9451 49.1458 20.349 48.2972 20.4247V21.0306H54.2877Z" stroke="#F15F22" stroke-width="0.3"/>
<path d="M66.3241 19.4149L66.0745 19.6674C65.9996 19.7431 65.9248 19.7683 65.8 19.7683C65.4505 19.7683 65.2758 19.4906 65.2758 19.0615V12.4724C65.2758 10.3013 63.4287 9.0895 60.3835 9.0895C57.563 9.0895 55.616 10.2508 55.616 12.2704C55.616 13.3307 56.2151 13.9871 57.2385 13.9871C58.2369 13.9871 58.9358 13.3307 58.9358 12.4724C58.9358 12.119 58.786 11.816 58.4616 11.4121C58.2369 11.1596 58.187 10.9829 58.187 10.8314C58.187 10.2255 58.9108 9.89735 59.8094 9.89735C61.2821 9.89735 61.8312 10.6295 61.8312 12.2452V13.9619C58.9358 14.795 57.7627 15.2494 56.8142 15.8805C55.6909 16.6379 55.1418 17.5972 55.1418 18.708C55.1418 20.5762 56.29 21.3841 57.8875 21.3841C59.3352 21.3841 60.4834 20.9044 61.8562 19.6421C62.1308 20.9296 62.6799 21.3841 63.903 21.3841C64.9763 21.3841 65.75 20.9801 66.6985 19.9451L66.3241 19.4149ZM61.8312 18.5818C61.2821 19.3644 60.683 19.5916 60.084 19.5916C59.3352 19.5916 58.786 19.011 58.786 17.9002C58.786 16.4359 59.8344 15.4009 61.8312 14.8455V18.5818Z" stroke="#F15F22" stroke-width="0.3"/>
<path d="M76.9708 9.39244H73.1768V9.99833C74.2501 10.0488 74.5246 10.2255 74.5246 10.8314C74.5246 11.1344 74.4747 11.4121 74.2501 12.0685L72.5528 16.8146L70.7556 12.119C70.481 11.4121 70.2564 10.7557 70.2564 10.6547C70.2564 10.276 70.531 10.0741 71.155 10.0236L71.5543 9.99833V9.39244H65.3392V9.99833C65.8883 10.0741 66.0381 10.1498 66.1878 10.3518C66.4125 10.6547 67.361 12.7753 67.8602 14.0376L70.8305 21.3588L70.3812 22.6968C69.9569 23.9591 69.3328 24.7669 68.7338 24.7669C68.5091 24.7669 68.3095 24.565 68.3095 24.3378C68.3095 24.3378 68.3095 24.262 68.3344 24.1863C68.3594 24.0601 68.3843 23.9338 68.3843 23.8329C68.3843 23.1007 67.7354 22.5201 66.8867 22.5201C65.9382 22.5201 65.3392 23.2522 65.3392 24.2115C65.3392 25.3981 66.3376 26.2059 67.7603 26.2059C68.609 26.2059 69.3328 25.9282 69.857 25.3728C70.3812 24.7922 70.9054 23.8076 71.779 21.4345L75.4731 11.3868C75.8725 10.3013 76.197 10.0993 76.9708 9.99833V9.39244Z" stroke="#F15F22" stroke-width="0.3"/>
<path d="M77.9458 8.9044V10.0733H79.4859V18.8403C79.4859 20.0358 79.1887 20.3812 77.9458 20.514V21.1516H85.4573V20.514C83.5659 20.4609 83.2417 20.0358 83.2417 18.309V10.0733H85.5654V8.9044H83.2417V5.7164C83.2417 4.14897 83.62 3.61763 84.5927 3.61763C85.0791 3.61763 85.3763 3.8036 85.3763 4.1224C85.3763 4.49433 84.7818 4.70687 84.7818 5.6367C84.7818 6.46027 85.4844 7.151 86.403 7.151C87.4028 7.151 88.0783 6.4337 88.0783 5.45073C88.0783 3.8833 86.5111 2.79407 84.2144 2.79407C82.4851 2.79407 81.2963 3.27227 80.5667 4.14897C79.6751 5.21163 79.4859 6.80563 79.4859 8.9044H77.9458Z" fill="#F15F22"/>
<path d="M101.318 20.6203V20.0093C100.129 19.9561 99.7781 19.5311 99.7781 18.3621V8.9044H94.3741V9.542C95.7251 9.64827 96.0223 10.0202 96.0223 11.2157V18.5481C95.1847 19.4514 94.5903 19.7967 93.8067 19.7967C92.834 19.7967 92.2936 19.2654 92.2936 17.7777V8.9044H87.2138V9.542C88.3217 9.75453 88.5378 10.0468 88.5378 11.2688V17.6714C88.5378 20.1421 89.8888 21.5236 92.1315 21.5236C93.6176 21.5236 94.6443 21.0719 96.0493 19.7702V21.497C97.2112 21.0985 97.8597 20.9922 99.616 20.8063L101.318 20.6203Z" fill="#F15F22"/>
<path d="M116.575 21.1516V20.514C115.522 20.4343 115.251 20.1155 115.251 18.92V12.3581C115.251 10.0468 113.819 8.5856 111.604 8.5856C109.983 8.5856 108.686 9.3029 107.767 10.8969H107.74V8.9044H102.579V9.542C103.768 9.72797 104.011 10.0202 104.011 11.1626V18.8403C104.011 19.9561 103.795 20.2749 102.579 20.514V21.1516H109.064V20.514C108.064 20.3812 107.767 19.903 107.767 18.92V11.9064C107.767 11.8002 107.956 11.5345 108.226 11.2688C108.821 10.6844 109.469 10.3656 110.118 10.3656C111.036 10.3656 111.496 11.136 111.496 12.6237V18.92C111.496 19.9827 111.171 20.4078 110.253 20.514V21.1516H116.575Z" fill="#F15F22"/>
</g>
<defs>
<clipPath id="clip0">
<rect width="116.575" height="29" fill="white"/>
</clipPath>
</defs>
</svg>
