<svg width="29" height="28" viewBox="0 0 29 28" fill="none" xmlns="http://www.w3.org/2000/svg">
<path d="M12.125 15.3004H6.1875C5.87256 15.3004 5.57051 15.4255 5.34781 15.6482C5.12511 15.8709 5 16.173 5 16.4879C5 16.8028 5.12511 17.1049 5.34781 17.3276C5.57051 17.5503 5.87256 17.6754 6.1875 17.6754H12.125C12.4399 17.6754 12.742 17.5503 12.9647 17.3276C13.1874 17.1049 13.3125 16.8028 13.3125 16.4879C13.3125 16.173 13.1874 15.8709 12.9647 15.6482C12.742 15.4255 12.4399 15.3004 12.125 15.3004Z" fill="#FF753A"/>
<path d="M12.125 20.0504H6.1875C5.87256 20.0504 5.57051 20.1755 5.34781 20.3982C5.12511 20.6209 5 20.923 5 21.2379C5 21.5528 5.12511 21.8549 5.34781 22.0776C5.57051 22.3003 5.87256 22.4254 6.1875 22.4254H12.125C12.4399 22.4254 12.742 22.3003 12.9647 22.0776C13.1874 21.8549 13.3125 21.5528 13.3125 21.2379C13.3125 20.923 13.1874 20.6209 12.9647 20.3982C12.742 20.1755 12.4399 20.0504 12.125 20.0504Z" fill="#FF753A"/>
<path d="M6.1875 8.1754H22.8125C23.1274 8.1754 23.4295 8.05029 23.6522 7.82759C23.8749 7.60489 24 7.30284 24 6.9879C24 6.67296 23.8749 6.37091 23.6522 6.14821C23.4295 5.92551 23.1274 5.8004 22.8125 5.8004H6.1875C5.87256 5.8004 5.57051 5.92551 5.34781 6.14821C5.12511 6.37091 5 6.67296 5 6.9879C5 7.30284 5.12511 7.60489 5.34781 7.82759C5.57051 8.05029 5.87256 8.1754 6.1875 8.1754Z" fill="#FF753A"/>
<path d="M22.8125 10.5504H6.1875C5.87256 10.5504 5.57051 10.6755 5.34781 10.8982C5.12511 11.1209 5 11.423 5 11.7379C5 12.0528 5.12511 12.3549 5.34781 12.5776C5.57051 12.8003 5.87256 12.9254 6.1875 12.9254H22.8125C23.1274 12.9254 23.4295 12.8003 23.6522 12.5776C23.8749 12.3549 24 12.0528 24 11.7379C24 11.423 23.8749 11.1209 23.6522 10.8982C23.4295 10.6755 23.1274 10.5504 22.8125 10.5504Z" fill="#FF753A"/>
<path d="M24 18.1207H20.6602V14.7809H18.4336V18.1207H15.0938V20.3473H18.4336V23.6871H20.6602V20.3473H24V18.1207Z" fill="#FF753A"/>
</svg>
