<svg width="10" height="10" viewBox="0 0 10 10" fill="none" xmlns="http://www.w3.org/2000/svg">
<path d="M3.8125 5.65015H0.84375C0.686278 5.65015 0.535255 5.7127 0.423905 5.82405C0.312556 5.9354 0.25 6.08642 0.25 6.2439C0.25 6.40137 0.312556 6.55239 0.423905 6.66374C0.535255 6.77509 0.686278 6.83764 0.84375 6.83764H3.8125C3.96997 6.83764 4.12099 6.77509 4.23234 6.66374C4.34369 6.55239 4.40625 6.40137 4.40625 6.2439C4.40625 6.08642 4.34369 5.9354 4.23234 5.82405C4.12099 5.7127 3.96997 5.65015 3.8125 5.65015Z" fill="#FF753A"/>
<path d="M3.8125 8.02515H0.84375C0.686278 8.02515 0.535255 8.0877 0.423905 8.19905C0.312556 8.3104 0.25 8.46142 0.25 8.6189C0.25 8.77637 0.312556 8.92739 0.423905 9.03874C0.535255 9.15009 0.686278 9.21265 0.84375 9.21265H3.8125C3.96997 9.21265 4.12099 9.15009 4.23234 9.03874C4.34369 8.92739 4.40625 8.77637 4.40625 8.6189C4.40625 8.46142 4.34369 8.3104 4.23234 8.19905C4.12099 8.0877 3.96997 8.02515 3.8125 8.02515Z" fill="#FF753A"/>
<path d="M0.84375 2.08765H9.15625C9.31372 2.08765 9.46474 2.02509 9.57609 1.91374C9.68744 1.80239 9.75 1.65137 9.75 1.4939C9.75 1.33642 9.68744 1.1854 9.57609 1.07405C9.46474 0.962702 9.31372 0.900146 9.15625 0.900146H0.84375C0.686278 0.900146 0.535255 0.962702 0.423905 1.07405C0.312556 1.1854 0.25 1.33642 0.25 1.4939C0.25 1.65137 0.312556 1.80239 0.423905 1.91374C0.535255 2.02509 0.686278 2.08765 0.84375 2.08765Z" fill="#FF753A"/>
<path d="M9.15625 3.27515H0.84375C0.686278 3.27515 0.535255 3.3377 0.423905 3.44905C0.312556 3.5604 0.25 3.71142 0.25 3.8689C0.25 4.02637 0.312556 4.17739 0.423905 4.28874C0.535255 4.40009 0.686278 4.46265 0.84375 4.46265H9.15625C9.31372 4.46265 9.46474 4.40009 9.57609 4.28874C9.68744 4.17739 9.75 4.02637 9.75 3.8689C9.75 3.71142 9.68744 3.5604 9.57609 3.44905C9.46474 3.3377 9.31372 3.27515 9.15625 3.27515Z" fill="#FF753A"/>
<path d="M9.75 7.0603H8.08008V5.39038H6.9668V7.0603H5.29688V8.17358H6.9668V9.8435H8.08008V8.17358H9.75V7.0603Z" fill="#FF753A"/>
</svg>
