<svg width="24" height="24" viewBox="0 0 24 24" fill="none" xmlns="http://www.w3.org/2000/svg">
<path d="M20 5H4C3.447 5 3 5.447 3 6C3 6.553 3.447 7 4 7H20C20.553 7 21 6.553 21 6C21 5.447 20.553 5 20 5Z" fill="#8E8E93"/>
<path d="M17 11H7C6.447 11 6 11.447 6 12C6 12.553 6.447 13 7 13H17C17.553 13 18 12.553 18 12C18 11.447 17.553 11 17 11Z" fill="#8E8E93"/>
<path d="M14 17H10C9.447 17 9 17.447 9 18C9 18.553 9.447 19 10 19H14C14.553 19 15 18.553 15 18C15 17.447 14.553 17 14 17Z" fill="#8E8E93"/>
</svg>
