<svg width="20" height="20" viewBox="0 0 20 20" fill="none" xmlns="http://www.w3.org/2000/svg">
<g clip-path="url(#clip0)">
<path d="M9.16675 4.16663V9.99996C9.16675 10.221 9.25455 10.4329 9.41083 10.5892C9.56711 10.7455 9.77907 10.8333 10.0001 10.8333H15.8334V9.16663H10.8334V4.16663H9.16675Z" fill="#FF0000"/>
<path d="M10 2.21683e-06C7.34871 0.00286978 4.80684 1.05736 2.9321 2.9321C1.05736 4.80684 0.00286757 7.34872 0 10H1.66667C1.66516 8.11918 2.29895 6.29298 3.46527 4.81746C4.63159 3.34193 6.26208 2.30357 8.09242 1.87072C9.92275 1.43786 11.8456 1.63588 13.5493 2.43268C15.253 3.22948 16.6377 4.57834 17.4788 6.26059C18.3199 7.94285 18.5682 9.85989 18.1835 11.7009C17.7987 13.542 16.8034 15.1991 15.3589 16.4036C13.9144 17.6082 12.1054 18.2896 10.2252 18.3373C8.34498 18.3851 6.50375 17.7964 5 16.6667L6.5 14.6667L0.5 14.3333L2.5 20L4 17.995C5.26733 18.9471 6.74285 19.5844 8.30488 19.8541C9.86691 20.1239 11.4707 20.0184 12.984 19.5465C14.4972 19.0745 15.8766 18.2496 17.0084 17.1397C18.1401 16.0299 18.9918 14.6668 19.4932 13.1631C19.9946 11.6593 20.1313 10.0579 19.8921 8.49089C19.6529 6.92389 19.0446 5.43621 18.1174 4.15054C17.1901 2.86486 15.9706 1.81804 14.5592 1.09639C13.1478 0.374739 11.5852 -0.00105317 10 2.21683e-06Z" fill="#FF0000"/>
</g>
<defs>
<clipPath id="clip0">
<rect width="20" height="20" fill="white"/>
</clipPath>
</defs>
</svg>
