<svg width="16" height="16" viewBox="0 0 16 16" fill="none" xmlns="http://www.w3.org/2000/svg">
<path d="M13.8835 9.89942L11.6917 9.3517C11.6129 9.33196 11.5413 9.29021 11.4853 9.23132C11.4293 9.17244 11.3912 9.09884 11.3754 9.01913L11.2117 8.19369C11.6596 7.98898 12.0393 7.65997 12.3057 7.24575C12.5721 6.83154 12.7139 6.34955 12.7143 5.85708V4.67935C12.7247 3.99744 12.4712 3.33789 12.0066 2.83855C11.5421 2.33921 10.9026 2.03872 10.2217 1.99988C9.77571 1.98681 9.33397 2.09002 8.93992 2.29937C8.54587 2.50871 8.21308 2.81699 7.97426 3.1939C8.53924 3.84473 8.85244 4.67638 8.85713 5.53822C8.80614 6.27478 8.98075 7.0094 9.35771 7.64425C9.44961 7.79146 9.51075 7.95575 9.53746 8.12722C9.56418 8.29869 9.5559 8.47379 9.51313 8.64198C9.47036 8.81017 9.39399 8.96796 9.28862 9.10584C9.18324 9.24372 9.05104 9.35885 8.89999 9.44428L9.01742 9.47856C9.46473 9.60786 9.85802 9.87878 10.1382 10.2506C10.4184 10.6225 10.5705 11.0753 10.5714 11.5409V13.5715C10.57 13.7178 10.5433 13.8628 10.4926 14.0001H14.4286C14.5423 14.0001 14.6513 13.9549 14.7317 13.8745C14.8121 13.7942 14.8572 13.6851 14.8572 13.5715V11.1466C14.8572 10.8599 14.7613 10.5815 14.5849 10.3555C14.4085 10.1295 14.1616 9.96899 13.8835 9.89942Z" fill="white"/>
<path d="M8.78173 10.3048L6.93284 9.77682C6.86546 9.7576 6.80381 9.72216 6.7533 9.6736C6.7028 9.62503 6.66496 9.56482 6.64313 9.49824L6.49741 9.05081C7.1725 9.09537 7.84846 8.97781 8.46887 8.70794C8.52165 8.68059 8.56816 8.64256 8.60545 8.59626C8.64274 8.54996 8.66998 8.49641 8.68546 8.43902C8.70094 8.38162 8.70431 8.32163 8.69535 8.26286C8.6864 8.20409 8.66531 8.14783 8.63344 8.09765C8.17115 7.32796 7.95048 6.43724 8 5.54076C8.00993 4.8624 7.75942 4.20605 7.30004 3.70681C6.84066 3.20757 6.20738 2.90343 5.53054 2.857C5.18436 2.84326 4.83898 2.89961 4.51513 3.02267C4.19127 3.14574 3.89563 3.33297 3.64593 3.57313C3.39624 3.8133 3.19765 4.10144 3.0621 4.42027C2.92654 4.73909 2.8568 5.08202 2.85707 5.42847C2.92286 6.3619 2.70281 7.29323 2.22621 8.09851C2.19451 8.14871 2.17359 8.20495 2.16477 8.26367C2.15596 8.32238 2.15944 8.38228 2.17499 8.43958C2.19054 8.49688 2.21783 8.55032 2.25513 8.59652C2.29242 8.64272 2.33891 8.68066 2.39164 8.70794C3.01204 8.97781 3.688 9.09537 4.36309 9.05081L4.21738 9.49824C4.19554 9.56482 4.15771 9.62503 4.1072 9.6736C4.05669 9.72216 3.99504 9.7576 3.92766 9.77682L2.07877 10.3048C1.80951 10.3809 1.57243 10.5428 1.4035 10.7659C1.23458 10.9889 1.14303 11.261 1.14276 11.5408V13.5714C1.14276 13.6851 1.18791 13.7941 1.26829 13.8745C1.34866 13.9549 1.45767 14 1.57134 14H9.28573C9.3994 14 9.50841 13.9549 9.58878 13.8745C9.66916 13.7941 9.71431 13.6851 9.71431 13.5714V11.5408C9.71425 11.2615 9.6232 10.9897 9.45494 10.7667C9.28668 10.5437 9.05035 10.3816 8.78173 10.3048Z" fill="white"/>
</svg>
