<svg width="32" height="29" viewBox="0 0 32 29" fill="none" xmlns="http://www.w3.org/2000/svg">
<path fill-rule="evenodd" clip-rule="evenodd" d="M0.610803 22.2806C0.825542 14.8522 3.06497 7.10011 10.0287 4.15648C16.1948 1.53649 24.0174 4.63424 26.1495 11.0301C28.1128 16.9482 24.3855 23.6831 18.5876 24.1917C13.3265 24.654 10.3354 21.4176 10.4581 17.1485C10.5655 14.7135 12.5902 12.2168 15.6272 12.2476C10.7189 14.2974 10.7342 22.8046 18.2961 22.3577C21.9007 22.1419 25.4746 18.0886 24.1861 13.2802C22.8057 8.11728 17.5599 5.34318 13.0964 6.62235C6.76156 8.44093 3.54046 15.6074 6.28606 21.9262C9.21573 28.6611 18.1888 31.4968 25.8274 26.3647C31.2879 22.6967 33.6654 14.4823 30.7357 7.17717C30.659 8.28681 30.5977 9.41187 30.521 10.5215C26.717 2.29167 20.4742 -1.57667 12.3908 0.596382C3.92393 2.8619 -1.96607 12.0935 0.610803 22.2806Z" fill="#F15F22"/>
</svg>
