<svg width="12" height="10" viewBox="0 0 12 10" fill="none" xmlns="http://www.w3.org/2000/svg">
<path d="M11.6855 6.37449L9.8145 5.62449C9.72188 5.58749 9.64244 5.52363 9.58639 5.44112C9.53035 5.35862 9.50026 5.26124 9.5 5.16149V4.72249C9.80325 4.54847 10.0553 4.29765 10.2309 3.99528C10.4064 3.6929 10.4992 3.34963 10.5 2.99999V2.08599C10.5085 1.57837 10.329 1.08554 9.99606 0.702234C9.66315 0.318929 9.2003 0.0722064 8.6965 0.00949356C8.41862 -0.0179407 8.13808 0.013116 7.87293 0.100664C7.60778 0.188213 7.3639 0.330313 7.15699 0.517817C6.95008 0.705321 6.78473 0.934074 6.67157 1.18935C6.55842 1.44462 6.49998 1.72076 6.5 1.99999V2.99999C6.50076 3.34963 6.59359 3.6929 6.76913 3.99528C6.94467 4.29765 7.19675 4.54847 7.5 4.72249V5.16149C7.33538 5.57384 7.05817 5.93161 6.7 6.19399C6.666 6.21599 6.633 6.24049 6.6 6.26299L7.0555 6.44549C7.33466 6.55591 7.57409 6.74787 7.74256 6.99634C7.91104 7.24482 8.00075 7.53829 8 7.8385V9C7.99834 9.17072 7.96722 9.33987 7.908 9.5H11.5C11.6326 9.5 11.7598 9.44732 11.8536 9.35355C11.9473 9.25978 12 9.1326 12 9V6.83849C11.9999 6.73858 11.9699 6.64098 11.9139 6.55828C11.8578 6.47557 11.7783 6.41156 11.6855 6.37449Z" fill="#FF753A"/>
<path d="M6.6855 7.37448L4.8145 6.62448C4.72188 6.58748 4.64244 6.52362 4.58639 6.44111C4.53035 6.35861 4.50026 6.26122 4.5 6.16148V5.93598C5.07846 5.88424 5.63573 5.69294 6.124 5.37848C6.17764 5.33885 6.2227 5.28876 6.25646 5.23124C6.29022 5.17373 6.31199 5.10997 6.32045 5.04381C6.3289 4.97765 6.32388 4.91047 6.30567 4.84631C6.28746 4.78215 6.25645 4.72234 6.2145 4.67048C5.81271 4.20622 5.56328 3.6297 5.5 3.01898C5.51463 2.66866 5.43401 2.32092 5.26672 2.01276C5.09944 1.70461 4.85175 1.44757 4.55 1.26898C4.24361 1.08844 3.89504 0.991853 3.53943 0.988959C3.18382 0.986064 2.83372 1.07696 2.52444 1.2525C2.21515 1.42803 1.9576 1.68199 1.77775 1.98879C1.59789 2.29558 1.50209 2.64436 1.5 2.99998C1.44219 3.61793 1.19233 4.20227 0.7855 4.67098C0.743566 4.72279 0.712563 4.78256 0.69436 4.84669C0.676158 4.91081 0.671134 4.97795 0.679591 5.04407C0.688048 5.11018 0.709812 5.1739 0.743568 5.23138C0.777325 5.28885 0.822375 5.33889 0.876 5.37848C1.36427 5.69294 1.92154 5.88424 2.5 5.93598V6.16148C2.49994 6.26139 2.46994 6.35899 2.41389 6.4417C2.35783 6.5244 2.27828 6.58842 2.1855 6.62548L0.3145 7.37548C0.221877 7.41248 0.142438 7.47635 0.0863938 7.55885C0.0303499 7.64136 0.000262743 7.73874 0 7.83848L0 8.99998C0 9.13259 0.0526784 9.25977 0.146447 9.35353C0.240215 9.4473 0.367392 9.49998 0.5 9.49998H6.5C6.63261 9.49998 6.75979 9.4473 6.85355 9.35353C6.94732 9.25977 7 9.13259 7 8.99998V7.83848C6.99994 7.73857 6.96994 7.64097 6.91389 7.55827C6.85783 7.47556 6.77828 7.41155 6.6855 7.37448Z" fill="#FF753A"/>
</svg>
